<svg width="93" height="90" viewBox="0 0 93 90" fill="none" xmlns="http://www.w3.org/2000/svg">
<path d="M25.1052 54.729L21.9934 57.3422V45.5601H29.6668V57.3422L26.5552 54.729C26.3436 54.5476 26.0869 54.457 25.8302 54.457C25.5733 54.457 25.3165 54.5477 25.1052 54.729Z" fill="#68328A"/>
<path d="M51.645 46.693V88.867C51.645 89.4862 51.1467 89.9999 50.5121 89.9999H1.1329C0.513716 89.9999 0 89.4862 0 88.867V46.693C0 46.0736 0.513716 45.5601 1.1329 45.5601H19.7276V59.7741C19.7276 60.2121 19.9843 60.6049 20.377 60.8013C20.7698 60.9825 21.2533 60.9221 21.5855 60.6351L25.8302 57.0703L30.0747 60.6351C30.2711 60.8164 30.5429 60.907 30.7998 60.907C30.9659 60.907 31.1171 60.8617 31.2679 60.8013C31.6758 60.6049 31.9326 60.2121 31.9326 59.7741V45.5601H50.5121C51.1467 45.5601 51.645 46.0736 51.645 46.693Z" fill="#68328A"/>
<path d="M70.406 60.2125L68.1251 62.1309V52.5088H74.1521V62.1309L71.8712 60.2125C71.6595 60.0312 71.4028 59.9406 71.1462 59.9406C70.8742 59.9406 70.6173 60.0312 70.406 60.2125Z" fill="#68328A"/>
<path d="M92.8976 53.6417V88.8673C92.8976 89.4866 92.3841 90.0002 91.7647 90.0002H53.9108V52.5088H65.8593V64.5628C65.8593 65.0009 66.116 65.4087 66.5087 65.59C66.6597 65.6655 66.8259 65.6957 66.9922 65.6957C67.2489 65.6957 67.5055 65.6051 67.7172 65.4238L71.1462 62.5539L74.56 65.4238C74.9074 65.7108 75.3755 65.7713 75.7683 65.59C76.1762 65.4087 76.4179 65.0009 76.4179 64.5628V52.5088H91.7647C92.3841 52.5088 92.8976 53.0073 92.8976 53.6417Z" fill="#68328A"/>
<path d="M35.468 3.23166L41.4688 0.118769C41.7957 -0.0507882 42.1872 -0.0380845 42.5024 0.152303L52.6746 6.2969L40.2077 9.77682L35.2181 4.9286C34.7006 4.42582 34.8276 3.5639 35.468 3.23166ZM66.5721 18.574C66.4193 18.6017 52.7137 21.0834 53.5825 20.9261L58.7967 14.8516C59.2038 14.3773 59.1493 13.6619 58.6743 13.254C58.2008 12.8491 57.4853 12.9022 57.0767 13.3764C56.752 13.7546 39.4909 33.8629 39.621 33.7114C39.4719 33.885 39.2707 34.0055 39.0473 34.055L33.8493 35.2063C32.9692 35.4013 32.2644 34.476 32.6862 33.6793C32.7662 33.5281 39.6876 20.4509 40.1304 19.6243C40.4225 19.0719 40.2116 18.3859 39.6599 18.0931C39.1023 17.7974 38.4208 18.0105 38.1272 18.5637L35.2594 23.9736L26.9207 25.3618C22.8493 26.033 18.8458 23.7296 17.3884 19.8913L11.9822 5.72403C11.752 5.12095 12.1113 4.4542 12.7415 4.31468L13.8693 4.065C14.241 3.98272 14.6281 4.10654 14.8831 4.38919L22.8006 13.1677C24.4956 15.0337 27.0682 15.7794 29.514 15.1134C35.6187 13.4094 51.8706 8.8732 65.8744 4.96448C68.1984 4.34492 72.9469 4.39048 76.7269 5.35244C71.785 9.0622 69.1586 9.40775 69.0813 9.41642C68.4647 9.46879 68.003 10.0072 68.0472 10.626C68.09 11.2227 68.5871 11.6785 69.1757 11.6785C69.2037 11.6785 69.2303 11.6778 69.2583 11.6756C69.6312 11.649 73.0072 11.2593 79.2859 6.2344C79.9052 6.52019 80.6263 6.91406 81.1398 7.42846C81.481 7.77021 81.516 8.32532 81.2525 8.73003C77.9047 13.8736 72.6199 17.4346 66.5721 18.574Z" fill="#68328A"/>
</svg>
