<svg width="102" height="102" viewBox="0 0 102 102" fill="none" xmlns="http://www.w3.org/2000/svg">
<path d="M100.716 50.9986C100.853 33.8669 91.4034 17.1019 76.672 8.36651C61.8174 -0.804097 42.1175 -1.21639 26.8833 7.30637C11.7035 15.4598 1.4209 32.035 1.05276 49.2819C0.172259 67.4562 10.3844 85.5962 26.3153 94.3506C41.433 103.123 61.2114 102.948 76.1748 93.9077C91.2079 85.2621 100.844 68.3403 100.716 50.9985V50.9986Z" fill="white"/>
<path d="M49.2626 1.14258L49.1471 1.20027H49.205L49.2619 1.14258H49.2626ZM26.5632 25.7219L27.0591 25.9467L26.8919 25.6699L26.8401 25.5604L27.0016 25.6124H27.0592L27.0016 25.5027H27.2784L27.0591 25.3931L27.2784 25.3355V25.1682L27.6704 25.2259L29.1065 24.2281L29.3313 23.2882L29.5506 23.2305L29.3833 21.5175L28.9969 21.0158L28.2241 20.687L27.3936 19.5798L27.7225 18.9165L28.276 18.5245L28.3338 18.2477H28.5011L28.3856 18.0863L28.9393 17.9708L29.3313 17.5843L29.8274 17.4748L29.9369 17.198L30.2714 17.417L30.6579 17.1402L30.8769 17.3075L30.6001 17.6422L30.6579 18.0863L30.9346 18.0284L31.1538 17.2557L31.2115 17.4172L32.0997 17.0309L32.1517 16.8635L32.6535 16.8117L32.7055 16.6444H33.0917L33.2072 16.258L33.2589 16.4772L33.4262 16.3099L33.5934 16.3676V15.8139L34.1991 16.2581L34.1471 16.0908L34.6432 15.814V15.9813L35.0295 15.7565L35.1968 15.8718L35.9178 15.595L36.137 15.37L35.9756 15.2604L36.581 15.0932L36.6907 14.8742L36.858 14.9839L37.302 14.6491L37.0828 14.5397L37.7461 14.43L37.6882 14.2108H38.023L37.9652 13.986H38.2997L38.3517 13.7667L38.5765 13.8764L38.5188 13.4899L38.9053 13.2651H38.6285L38.7957 13.2133L38.6285 13.0459L38.9629 13.1037H39.0725L39.7357 12.3252L39.5742 12.2732L40.3469 12.1059L40.1797 11.8811L40.5143 11.7196L40.2893 11.6043L40.6816 11.5523L40.7333 11.3275L40.2893 11.4428L40.9007 11.1661H40.7334L40.2894 11.0507L39.4591 11.1661L40.8431 10.6642L40.128 10.278H40.9007L40.2375 9.94328L40.0703 9.17056L39.9029 9.11287L39.3494 9.06088L39.4071 8.95132L40.0704 8.55915L40.2894 8.39772L40.1798 8.33991L40.5663 8.28222L40.6818 8.06323L41.5642 7.84412H41.8987L42.1179 7.61919L40.8434 7.56719L40.2896 7.78643L39.6842 8.00542L39.6265 7.56719H38.9055L39.0728 7.29039L39.9032 7.12315L40.6819 6.73666L41.397 6.34461L42.0084 6.23493L42.1756 6.40217L41.3971 6.89821L41.8413 6.84622L41.2355 7.17501L43.0062 6.56929H44.2232L43.8887 6.89809L44.1654 6.95578L43.7271 7.01346L43.5023 7.2327L43.8888 7.17501L43.6696 7.29026L44.0561 7.23258L44.1137 7.17489L44.7192 7.29014L44.8865 7.67662L44.6675 7.56706L44.333 7.72849L44.5578 7.84399L44.6097 7.72849L44.5578 7.95355H44.8346L44.3329 8.44946L44.5577 8.61671L44.2809 8.67452L44.4423 8.78395L44.996 8.50728L45.0537 8.67452L45.1634 8.44946L45.3884 8.61671L45.3306 8.39772L45.8267 8.5074L45.9939 8.28234L46.3284 8.34003L46.7149 7.89599L46.6529 7.45485L46.0474 6.84913L45.3843 6.6242L45.5457 6.46277L47.0452 5.96091L47.1548 5.63224L47.7602 5.40744V5.29788H48.1524L48.4812 5.02108L49.3116 5.24007L50.6439 4.96339L52.4144 4.08087L53.4642 3.46945L53.6314 3.36002V3.14091L53.5735 2.97366L54.0755 2.63917L53.5333 2.42576V2.41994L53.8331 2.46611L53.8505 2.47193L53.9659 2.41994L53.1355 2.25269L53.1528 2.27002L53.1239 2.26446C53.1239 2.26446 53.0623 2.17539 53.0202 2.18931C52.9781 2.20335 52.4723 2.20095 52.4723 2.20095L52.4145 2.24687L51.832 2.31025L51.9474 2.20652L51.5437 2.25269L51.5321 2.14895L50.9555 2.14313L50.8111 2.07975L52.1262 1.87797L52.9681 1.69909L53.9659 1.58941L55.35 1.6414L55.5691 1.69909L55.6787 1.6414L56.7859 1.75678H56.8955L58.2277 1.9182L57.7258 1.86621L57.8932 1.9182L58.9486 2.03345L58.8908 1.97576H59.4446L60.6096 2.14301H60.7191V2.195H60.8864L61.0477 2.25256H61.1054L61.3938 2.29292L60.938 2.195L60.9207 2.17767L60.4939 2.08532L60.269 2.05635H60.2632L60.2172 2.0332H60.1653L60.0552 1.97576H59.9977L59.7321 1.92959L59.7207 1.9182H59.663L59.4611 1.88367L59.4438 1.86621H59.363L59.0745 1.81434H59.069L59.0573 1.80852H59.0228L58.821 1.77398H58.8152L58.7805 1.75665H58.5569L58.4933 1.74501L58.4589 1.71048L58.6724 1.75665L58.4473 1.69884L58.0724 1.65266L58.0611 1.64128H57.9514L57.7035 1.60092L57.6746 1.58928H57.6169L57.2536 1.56056L57.1728 1.53159H56.8439L56.6767 1.47985H56.3999L56.2328 1.42204H55.904L55.7368 1.36435H55.4022L55.2351 1.31248H54.7389L54.5718 1.25466H53.7991L53.6319 1.2028H52.6917L52.5245 1.14511H52.4669V1.18002L50.8636 1.25492L50.6964 1.36447H50.6444L50.8636 1.25492H50.8291L49.9754 1.19141C49.9754 1.19141 48.6959 1.21772 48.3663 1.24341C48.3551 1.24429 48.3538 1.24758 48.349 1.24922L49.9754 1.20305L48.5393 1.25492L48.6489 1.31273L48.0375 1.3646L46.0478 1.58941L48.3145 1.31273L48.5393 1.25492H48.0434L47.0973 1.30109H47.057L47.0396 1.30691H47.0224L46.9879 1.31273H46.6013L46.4802 1.35309L46.4571 1.35865L46.3764 1.36447H45.9379L45.9207 1.38181L45.7706 1.42216H45.4361L45.3844 1.45113H45.3786L45.269 1.4801H44.9921L44.9114 1.50313L44.773 1.53185H44.4962L44.3289 1.58953H44.0521L43.8445 1.64153H43.7233L43.5561 1.69922H43.3313L43.043 1.75703H42.9448L42.7776 1.8089H42.6679L42.5006 1.86659H42.3392L42.172 1.91858H42.0624L41.8952 1.97614H41.7279L41.6184 2.03383H41.4511L41.3416 2.08583H41.1743L41.0071 2.14351H40.8975L40.7706 2.18387L40.6784 2.19551H40.6206L40.5725 2.21233L40.2899 2.25269L40.5378 2.22372L40.4226 2.24687L40.5033 2.23549L40.4571 2.25269H40.3475L40.1802 2.31038H40.0708L39.9034 2.36237H39.794L39.6786 2.42006H39.6267L39.5172 2.47206H39.4075L39.2403 2.52974H39.1306L39.021 2.58743H38.8538L38.8134 2.61058L38.6865 2.63955L38.5193 2.69724H38.4674L38.3866 2.7376L38.3347 2.74924H38.2424L38.0751 2.80693L37.9137 2.86461H37.856L37.6885 2.91661H37.6368L37.5213 2.9743H37.4118L37.3021 3.02616H37.1926L37.0253 3.08398L36.9676 3.14167H36.858L36.806 3.19366H36.6387L36.529 3.25135L36.4138 3.30322H36.3041L36.1946 3.36103H36.1369L36.0272 3.41859H35.9176L35.8599 3.47046H35.7504L35.6407 3.52828H35.583L35.4793 3.57913H35.4274L35.3292 3.63113L35.312 3.6367L35.2255 3.68287L35.214 3.68869L35.2024 3.69451H35.1506L35.0641 3.73487L35.0409 3.74069L35.0351 3.74625H34.9717L35.0351 3.71753L34.9544 3.74625H34.9257L34.914 3.75789L34.7871 3.80407H34.7584L34.6661 3.84999L34.6487 3.85581H34.5968L34.4988 3.9078L34.4872 3.91337H34.4816L34.3201 3.97118L34.1759 4.02305H34.0951L34.072 4.05202H34.0662L33.9278 4.08074L33.651 4.1903L33.3742 4.29985L33.2127 4.35754L33.0972 4.40954L32.9358 4.46722L32.7973 4.52491L32.9242 4.47886L32.8838 4.51922L32.8783 4.52479H32.7686L32.6764 4.57096L32.659 4.57678L32.6532 4.5826L32.6187 4.61714L32.5435 4.63434H32.5321L32.6532 4.5826L32.4918 4.63434L32.2668 4.74402L32.4572 4.66331L32.4341 4.68646L32.3244 4.74415H32.2147L32.1916 4.76718L32.1858 4.773L32.157 4.80171H32.1224L32.0071 4.85371H31.9899L31.8284 4.9114L31.7245 4.96339H31.7131L31.6208 5.01513L31.6034 5.02095L31.4593 5.07851H31.4362L31.3266 5.13051L31.2979 5.16505H31.2921L31.2401 5.1882H31.2056L31.3266 5.13051H31.2748L31.1593 5.1882L30.94 5.29775L30.8421 5.34393L30.819 5.35531L30.8018 5.36683L30.698 5.40731H30.6635L30.5539 5.465L30.4442 5.51674H30.3867L30.0522 5.68398L30.029 5.70701L29.9712 5.73598L30.0522 5.68398L29.9425 5.7418L29.9309 5.75331L29.8675 5.78228L29.8329 5.79367L29.9425 5.7418L29.7753 5.79367L29.7291 5.84566L29.7233 5.85148L29.579 5.92056L29.4983 5.96091H29.4463L29.4118 5.99557L29.135 6.12816L29.2446 6.08211L29.1464 6.12816H29.1118L29.0023 6.18597L28.9791 6.20318L28.9736 6.20899L28.8581 6.26668L28.8062 6.2954H28.7832L28.6677 6.3474L28.6562 6.3646H28.6503L28.6445 6.37042L28.5696 6.40496H28.5927L28.633 6.38181L28.6214 6.39926L28.6158 6.40496H28.5927L28.4831 6.46277H28.4486L28.3389 6.51464L28.0044 6.68188L27.8947 6.73957L27.5659 6.90112H27.5603L27.5545 6.90694L27.4508 6.95881L27.3988 7.0165L27.3412 7.06849L27.2316 7.12606H27.1739L27.0643 7.17805L27.0356 7.20677L27.0066 7.23574L26.8969 7.29343L26.8452 7.34542H26.7297L26.6777 7.40298L26.5752 7.45485L26.5463 7.48357L26.5173 7.51254L26.4079 7.57023L26.2982 7.62222H26.2404L26.1828 7.67991L26.0731 7.73178L26.0272 7.78377L26.0214 7.78959L25.906 7.84728L25.687 7.95684L25.5773 8.00871L25.5196 8.06652L25.4676 8.12421L25.4561 8.13003L25.3524 8.17595L25.3062 8.22795L25.3004 8.23377L25.1908 8.28551L25.0756 8.34319H25.0236L24.9717 8.39519L24.9659 8.40101L24.8562 8.45288L24.7985 8.51069L24.689 8.56243L24.637 8.62012L24.5852 8.67212L24.4697 8.72981L24.4642 8.73562L24.3603 8.78737L24.3025 8.83936L24.2968 8.84518L24.1931 8.89705L23.968 9.00673L23.8643 9.11047L23.8585 9.11629L23.8067 9.17398H23.749L23.6912 9.23167L23.5816 9.28366L23.3627 9.39334L23.3223 9.47406L23.2531 9.50859L23.2014 9.56059H23.1955L22.9763 9.67027L22.9187 9.72783L22.8091 9.78552L22.6995 9.8952H22.6418L22.5841 9.94695L22.4744 10.0048L22.4283 10.0566L22.4225 10.0624L22.3072 10.1144L22.1976 10.2239L22.088 10.2817L22.0303 10.3394L21.9207 10.3912L21.9034 10.4317L21.8689 10.4489L21.7533 10.5584L21.6438 10.6162L21.5344 10.6679L21.4939 10.7486L21.7938 10.5642L22.4225 10.1144L21.9784 10.4489L21.794 10.5642L21.2577 10.9448L20.9461 11.1583L20.5367 11.4986L19.9311 11.9426L20.5828 11.4236L20.5366 11.4465L20.4269 11.4984L20.4097 11.5274L20.3693 11.5561L20.2598 11.6657L20.1501 11.7234L20.1097 11.7926L20.0405 11.8329L19.8733 11.9425L19.7636 12.052L19.6542 12.1097L19.6138 12.1501L19.6022 12.1559L19.3774 12.3865L19.2619 12.4384L19.0429 12.6635L18.9333 12.7153L18.6565 12.9921L18.5469 13.0498L18.4892 13.1076L18.3796 13.1595L18.3219 13.2691L18.2699 13.3267L18.1547 13.3846L17.9354 13.6035L17.8258 13.6612L17.7681 13.7132L17.7161 13.8229L17.6123 13.8748H17.6066L17.6008 13.8806L17.5777 13.9096L17.5487 13.9383L17.5431 13.9441L17.4394 13.9903L17.4047 14.0595L17.5316 13.9558L17.3816 14.1L17.4047 14.0595L17.2145 14.2152L17.324 14.1577L17.0472 14.3768L16.1073 15.3227L15.94 15.4322L15.2249 16.153L15.1671 16.2626L15.0574 16.3146L14.9997 16.4299L14.8901 16.4819L14.8324 16.5914L14.7228 16.6491L14.671 16.7587L14.2787 17.145L14.227 17.2604L14.1173 17.3123L14.0596 17.4218L13.95 17.4796L13.8924 17.5891L13.6731 17.8141L13.6154 17.9236L13.5059 17.9756L13.4482 18.0911L13.2866 18.2525L13.2289 18.3677L13.0097 18.587L12.952 18.6965L12.8425 18.7542L12.7848 18.8638L12.5658 19.083L12.508 19.1983L12.3407 19.3597L12.2889 19.4752L12.1216 19.6366L12.0638 19.7521L11.8448 19.9711L11.787 20.0807L11.6256 20.2479L11.5679 20.3576L11.5102 20.4153L11.4582 20.5248L11.291 20.6921L11.2333 20.8016L11.1813 20.8593L11.1236 20.969L10.9563 21.1363L10.8468 21.3555L10.7372 21.4132L10.6795 21.5227L10.6275 21.5746L10.5181 21.7997L10.4026 21.8515L10.2929 22.0766L10.2412 22.1283L10.1257 22.3534L10.0161 22.4053L9.9067 22.6301L9.84889 22.6821L9.79714 22.7976L9.73933 22.907L9.68746 22.959L9.57196 23.0742L9.52022 23.1839L9.46253 23.2359L9.37018 23.4204L9.29516 23.4607L9.24329 23.5703L9.1856 23.628V23.68L9.13361 23.7376L9.07605 23.8472L9.01836 23.9049L8.96636 24.0144L8.90867 24.0663L8.85668 24.1818V24.2336L8.79899 24.2914L8.7413 24.3432L8.69513 24.447L8.68931 24.4586L8.63162 24.5104L8.57963 24.62L8.52194 24.6777V24.7355L8.46425 24.7874L8.41226 24.8971L8.35469 25.0125L8.30282 25.0643L8.24501 25.122V25.174L8.18732 25.2893L8.13533 25.3413L8.07764 25.4508L8.02577 25.5085L7.96796 25.6182L7.91027 25.7278L7.85853 25.7854L7.80071 25.895V25.9527L7.74884 26.0624L7.63347 26.1719V26.2814L7.5816 26.3392L7.47204 26.4489V26.5583L7.38551 26.6968L7.37969 26.7026L7.35654 26.7255L7.29885 26.8467L7.29303 26.8581L7.13743 27.1119L7.35641 26.6737L7.04508 27.2677L7.03926 27.2733L7.00472 27.3367L7.02193 27.3138L7.07961 27.2273L7.02775 27.3367L7.24698 26.9505L7.52366 26.616L8.90792 24.7358L8.68868 25.2317L8.85592 25.0645L8.63099 25.5662L8.68868 25.5085L8.79836 25.3413V25.399L8.90792 25.2893L8.74067 25.6182L9.01747 25.2317L8.79823 25.5662V25.7854L9.29415 25.3414L9.07516 25.7279L8.57912 26.2296L8.74067 26.7833L9.35196 26.0624L9.73832 25.2318L9.96338 25.1223L9.68658 25.3991L9.62889 25.6183L9.79613 25.5086L9.57107 25.8431L9.51933 26.1199L9.18484 26.835L8.57912 29.2747L8.68868 32.1525V33.5944L9.07516 33.9231L9.35196 33.5369L9.51921 32.9832L9.96325 32.5391L9.84775 32.4871L10.015 31.9854L10.1245 31.7664L10.4014 31.599L10.5686 30.6014L10.7358 30.0478L10.7934 29.9381V29.9149L11.0702 29.2749L11.2202 28.1331L11.2319 28.1099V28.0579L11.4567 27.5562L11.7854 27.3369L12.0622 26.8352L12.6158 26.3393L12.7313 26.0048L13.9481 24.6782L14.6113 23.6806L15.4418 22.9596L15.9956 22.2963L16.0532 21.91L16.6587 21.4659L16.8838 21.0794L16.8261 21.4659L17.1606 21.0219L17.2703 21.2467L17.3797 20.9122L17.4375 21.0794L17.6565 20.8026L17.766 20.9123L17.9333 20.5258L17.991 20.8603L18.3775 20.2489L18.2678 20.5834L18.4295 20.4682L18.487 20.0817L18.9312 19.9144L19.1502 21.2987L19.427 20.9699L19.2597 21.2987L19.7038 21.2467L19.7558 21.5408L19.7613 21.5235V22.6307L19.2596 23.7901L19.5941 23.5133L19.3751 23.8478L19.5365 23.6286L19.7038 23.7901L19.871 23.5133L20.0383 23.6806L20.2575 23.2941L20.7016 23.0173L20.5919 22.7983L20.7591 22.9597L21.0879 22.6308L21.1973 22.1869L21.3646 22.7404L21.6414 22.6307L21.4224 23.7901L21.4743 24.6782L21.5896 24.3438L21.8086 25.0647L21.532 25.728L21.7509 25.8433L21.3645 26.6161V27.112L21.5318 26.8352L21.474 27.112L21.0358 28.4963L21.3126 28.277L22.1431 29.2748L22.195 29.3842L22.4198 30.9876L22.9158 31.9854L24.4671 32.7639L24.7959 32.3719L25.0727 32.5391L24.467 31.5989L24.519 30.2724L24.3575 29.719L23.2502 28.8884L22.4717 28.8308L22.2524 27.781L22.1949 27.3888L21.7507 27.5043L21.8084 27.0025V26.7257L22.5813 25.2895V25.2086L22.5986 25.122V25.1106L22.6389 25.0414V24.9318L22.6966 24.436L23.4116 24.1015L23.2502 24.7128L23.9135 24.4877L24.467 24.7128L24.6862 25.5432L25.0207 25.2664V25.7624L25.1879 25.5432L26.0185 25.82L25.7417 26.7602L26.0703 26.7024L26.7913 26.0969L26.599 25.706M60.96 2.15895L61.3117 2.23384H61.3637L60.9427 2.14149L60.9604 2.15895H60.96ZM60.9423 2.14149L60.9251 2.12428H60.8673L60.9432 2.14149H60.9423ZM61.4332 2.2742L61.5311 2.2914L61.7445 2.33176L61.5888 2.2914L61.4332 2.2742ZM61.7444 2.33176L62.0327 2.40109L62.4192 2.51064L61.8654 2.40109H61.5309L61.1445 2.45308L60.5909 2.40109L60.4813 2.51064L60.6485 2.72988L62.2518 3.72753L62.8055 3.56028L62.5864 3.3413L63.3014 3.50854H63.3591L63.0823 3.28348L62.9729 3.23161H63.0246L63.8032 3.3413L63.3591 3.0645L63.8552 3.17405L63.1919 2.89725H63.3014L62.6381 2.73001V2.62045L63.7456 2.84526L63.9647 2.89143L63.8552 2.84526L63.6936 2.78757H63.5784L62.2981 2.44144L62.1424 2.40109L61.7464 2.33176H61.7444ZM19.7878 21.5547L19.7822 21.5202L19.7591 21.5664L19.7869 21.5537L19.7878 21.5547ZM19.7587 21.5661L19.4529 21.6699L19.6202 21.8891L19.7593 21.5665L19.7587 21.5661ZM7.03065 27.3159L6.82887 27.6449L6.88656 27.5929L7.03065 27.3159ZM6.88644 27.593L6.82875 27.7027L6.82293 27.7199L6.77675 27.8122L6.71906 27.8699L6.66707 28.0372L6.58636 28.1987L6.56321 28.2333L6.39014 28.5332L6.49401 28.3775L6.39014 28.5909L6.69591 28.0141L6.77663 27.8699L6.82862 27.7604V27.7547L6.91503 27.5644L6.88644 27.591V27.593ZM6.91515 27.5639L6.88644 27.6446L6.94412 27.5349L6.91515 27.5639ZM6.39039 28.533L6.27515 28.7519L6.29235 28.7288L6.39039 28.5327V28.533ZM6.29235 28.729L6.22315 28.8676V28.9193L6.2 28.9599L5.94622 29.4212L5.61173 30.1363L5.88854 29.5827L5.86551 29.6403L5.55987 30.2517V30.3037L5.76747 29.8655L5.72129 29.9749L5.55987 30.3037V30.3614L5.05801 31.3592V31.4687L4.94858 31.6877L4.89076 31.8549L4.72934 32.1894V32.2991L4.45254 32.8528V32.9624L4.28529 33.2969V33.4064L4.2276 33.5161L4.17561 33.6834L4.33716 33.2969L4.61396 32.5759L4.89064 32.0222L5.22525 31.1342L5.39249 30.7477V30.8053L6.2229 29.0868L6.44214 28.5331L6.37294 28.6196L6.36168 28.6373L6.29235 28.7297V28.729ZM4.17573 33.6831L4.06049 33.9021V34.0058L4.17573 33.6832V33.6831ZM20.9698 11.1393L21.2813 10.874L21.1717 10.9259L21.0044 11.0931L20.9466 11.1509L20.9706 11.1393H20.9698ZM20.947 11.1508L20.8376 11.2027L20.7856 11.2604L20.9475 11.1508H20.947ZM28.4793 6.44481L28.6004 6.38699H28.5887L28.4787 6.44481H28.4793ZM32.1531 4.78362L32.2165 4.7549L32.1416 4.78362H32.1531ZM35.0653 3.69957L35.0135 3.72829L35.1692 3.67642H35.1287L35.0655 3.69957H35.0653ZM35.3424 3.6186H35.2905L35.204 3.66478L35.3419 3.6186H35.3424ZM47.1355 1.283L47.9141 1.23683L48.0756 1.18496L47.8564 1.23683L47.2509 1.2658L47.1358 1.283H47.1355ZM47.2519 1.2658L47.523 1.23683H47.4133L47.1768 1.27149L47.2527 1.2658H47.2519ZM47.176 1.27162H47.1415L47.1243 1.27718L47.176 1.27162ZM47.4126 1.23683H47.2453L47.176 1.25985L47.4126 1.23683ZM57.3043 1.54842L57.6041 1.57132H57.3793L57.3047 1.54842H57.3043ZM58.1747 1.65215L58.4343 1.68087H58.3189L58.1747 1.65215ZM59.0046 2.01536L59.4831 2.06736L59.3159 2.01536H59.0046ZM54.3339 2.2346L54.6396 2.33252L54.5588 2.2346H54.3336H54.3339ZM54.64 2.33252L54.6514 2.34416H54.6687L54.6396 2.33252H54.64ZM54.6501 2.34428L54.1657 2.40197V2.62121L54.558 2.89801L54.6099 3.12294L54.8348 4.23027L55.0538 4.00521L55.6076 4.11477L55.6651 4.28202L55.7748 4.17246L54.9963 3.72841L55.1634 3.39974H55.7171L56.2188 3.56117L55.6651 3.17481L55.0538 2.84602L54.649 2.34428H54.6501ZM63.025 2.73064L63.1404 2.78833L63.4172 2.84602L63.025 2.73064ZM63.9764 2.89789L64.2475 2.95557L64.1322 2.89789H63.9766H63.9764ZM64.2762 2.96696L64.4089 3.00732H64.4664L64.2754 2.96696H64.2762ZM64.4672 3.00732L64.7787 3.1113L64.5249 3.00732H64.468H64.4672ZM64.5241 3.00732L64.6682 3.05931L64.576 3.00732H64.5241ZM38.6126 3.06513H38.7799L38.1109 3.39962L37.4478 3.6186H37.615L36.0635 4.11464L35.677 4.28189L35.0139 4.50682L34.6274 4.55882L35.4002 4.33958L36.2883 4.00509L37.4478 3.56104L38.6129 3.06513H38.6126ZM64.8075 3.12282L64.963 3.17481L64.8536 3.12282H64.8068H64.8075ZM64.963 3.17481L65.1304 3.2325L65.0266 3.17481L65.0843 3.19214L65.2399 3.2325L65.1304 3.17481H65.0437L64.9113 3.12282H64.8651L65.0208 3.17481H64.9639H64.963ZM65.1934 3.23237L65.5165 3.34206L65.4069 3.28424L65.3666 3.27273L65.1945 3.23237H65.1934ZM65.4072 3.28424L65.684 3.36495V3.34206L65.4069 3.28424H65.4072ZM65.6842 3.36483V3.38798L66.4626 3.6186L66.1858 3.50917L65.6848 3.36483H65.6842ZM66.4622 3.6186L66.9006 3.7861L66.8489 3.72829L66.4617 3.6186H66.4622ZM65.6842 3.38798L65.517 3.34206L65.6842 3.39962V3.38798ZM61.975 3.67642L61.6982 3.7861H62.0327L61.9757 3.67642H61.975ZM34.9148 3.77446L34.9032 3.7861H34.8686L34.9142 3.77446H34.9148ZM34.0849 4.04544L34.0733 4.06278L33.929 4.11477H33.906L33.8657 4.13792H33.86L33.7676 4.17246H33.7386L33.9059 4.11477L34.0855 4.04544H34.0849ZM33.6522 4.2013L33.6465 4.21269L33.6407 4.21851L33.4618 4.28189H33.4331L33.5714 4.23015H33.5772L33.6519 4.2013H33.6522ZM33.3815 4.30504L33.3759 4.31086L33.3008 4.33958H33.272L33.3808 4.30504H33.3815ZM54.7779 4.33958L54.6108 5.06055L53.9476 5.00299L54.1149 5.17023L53.7803 5.2221L53.6707 5.27992L53.838 5.66627V5.6144L54.5588 5.55672L54.0051 5.38947L54.0569 5.27979L54.4434 5.38947L54.8357 5.27979L55.8854 5.55659L56.2717 5.27979L57.3791 5.17023H57.0503L56.9926 4.83574L56.6581 4.94543L56.0526 4.89343L54.7799 4.33958H54.7779ZM33.0981 4.4089L33.0231 4.44926H32.9886L33.0974 4.4089H33.0981ZM58.434 4.6165L57.9898 4.89331L58.9877 4.6685L58.4336 4.6165H58.434ZM57.4359 4.83562L57.2111 5.00286L57.1591 5.11242L57.7128 4.89318L57.4359 4.83562ZM31.8811 4.90494L31.8004 4.9453H31.7773L31.881 4.90494H31.8811ZM30.3706 5.54495L30.359 5.55659L30.2495 5.61428L30.2265 5.63743L30.1631 5.66615H30.1111L30.3705 5.54495H30.3706ZM54.3921 5.72383L54.611 5.94282L54.0573 5.77558L53.8383 5.89108L53.7806 6.00064L53.7288 6.21962H53.9479L54.0055 6.3293L53.9479 6.44468L53.5614 6.94059L52.1774 7.49432L51.8427 7.32708L52.1774 7.15983L51.7909 7.21752L51.2892 7.93849L49.184 7.99036L47.5807 8.60165V8.7689L48.4689 8.82089L48.6882 8.54409L48.7977 8.71134L49.9626 8.38267H50.7931L50.5683 8.7689L51.0701 8.93614L51.2893 8.82089L51.9006 8.60165L51.6238 8.38267L51.791 8.21542L51.9006 8.38267L51.9523 8.26716L52.2291 8.32485L52.01 8.43453H52.8404L53.227 8.21555L53.2846 8.43453L53.5038 8.15773L53.8901 8.21555L53.9479 7.99049L54.0573 8.0483H54.1669L54.1151 8.21555L54.0573 8.32498H54.1151L54.6686 7.99049L54.4438 7.7715L54.7209 7.43676L54.6113 6.94072H54.9978L55.2746 6.44481L54.7784 5.72383H54.3926H54.3921ZM29.6154 5.91423L29.5864 5.94295H29.5518L29.6151 5.91423H29.6154ZM49.7365 8.54396L49.1828 8.76877L49.0734 8.65934L48.3524 9.04557L48.6869 8.98801L48.7965 9.3225L49.0733 9.21294L49.5172 8.93614L49.9612 9.0457L50.3477 8.7689L50.238 8.60165L49.7358 8.54396H49.7365ZM47.6378 8.82077L46.5824 9.09757L46.9169 9.32237L46.6401 9.21282L46.692 9.43205L47.136 9.37437L46.9688 9.15513L47.2456 9.09744L47.361 9.37424L46.9169 9.98553L47.2456 10.1528L47.4128 9.87597L47.3033 10.2046L47.7993 9.98566L48.4107 9.21282L47.639 8.82077H47.6378ZM46.4726 11.4796L46.0286 11.6468L46.1958 11.7565L46.4729 11.4796H46.4726ZM40.0485 13.6939L38.7798 14.8013L38.6645 15.1358L39.2182 15.7414L40.3831 13.8612L40.0479 13.6943L40.0485 13.6939ZM38.7796 17.9041L38.4451 19.5075L38.1107 19.398H38.0588L37.8915 19.6748L38.0588 20.2861L38.1107 20.4475L38.3875 20.6723L38.5028 20.3955L38.7795 20.4475L38.5028 21.0588L38.9987 21.1684L39.3852 20.8396L40.0484 21.3356V20.7819L40.6598 21.3933H41.2135L41.2711 21.6701L41.3808 21.2781L41.0463 21.3358L40.879 21.0013L41.2135 20.8917L41.0463 20.7245L40.6598 20.6725L40.4926 20.9493L40.2736 20.5628L39.8294 20.6148L39.7716 20.8916L39.3334 20.5627L39.1661 19.9514L40.1639 18.8442L39.9388 18.2906L40.1062 17.9041H38.7779H38.7796ZM31.4143 18.0711L30.1975 18.3477L29.6438 18.8438L29.8054 19.3975L30.1975 19.4552L30.8608 19.0112L31.4663 18.2902L31.4144 18.0701L31.4143 18.0711ZM58.873 20.8391L58.5962 20.8911L58.6538 21.0583L58.8739 20.8395L58.873 20.8391ZM38.2255 21.2781L38.5542 21.6126L38.779 22.1083L39.0558 22.0566L39.2174 21.4452L38.2243 21.2782L38.2255 21.2781ZM42.1536 21.5551L41.4326 21.6129L42.0441 22.1665L41.9921 22.4607L41.9862 22.4432L41.4328 22.3338L41.4905 22.778L41.9864 23.4411L41.9345 23.1643H42.2113L42.0037 22.5068L42.6554 22.6626L42.4303 21.8321L42.1532 21.5563L42.1536 21.5551ZM40.5495 21.7221L40.4917 22.1662L40.8205 21.9469L40.5497 21.7217L40.5495 21.7221ZM39.4425 22.2762V23.3316L40.4403 22.7203V22.3858L40.2153 22.553L39.4423 22.276L39.4425 22.2762ZM41.2137 22.552L40.7177 23.5498L40.4927 23.9363L40.735 23.5498H40.7695V23.4921L41.156 23.2153L41.2154 22.5537L41.2137 22.552ZM37.4475 22.8291L37.3955 23.3308L37.1707 23.2155V23.55L36.7842 23.9365L35.4002 25.3205L36.1209 24.8246L36.7842 23.9941L36.8419 23.9365L37.5571 23.4923L37.447 22.8294L37.4475 22.8291ZM40.4926 22.8291L40.1639 23.4923L40.0484 23.6076L39.7716 23.7173L40.2734 24.2709L40.4924 24.0458L40.4406 23.5499L40.7692 22.9386L40.4922 22.8286L40.4926 22.8291ZM41.2706 23.3832L41.1033 23.4927L40.9361 23.66L41.1033 23.7695L41.5994 23.66V23.4407L41.2705 23.3825L41.2706 23.3832ZM42.3206 23.5502L42.3783 24.1616H41.7669L41.7092 24.5481L41.3804 24.4902L40.769 24.9921L40.9362 24.6575L40.5499 24.4385L39.5521 25.1017L39.2753 25.7649L39.4945 25.8745L39.8866 25.2112L40.5499 25.488L40.7689 25.1015L41.2706 25.3783L41.1033 26.1512L41.8763 26.4857L42.1011 26.3184L42.2107 26.7048L42.4297 26.3761L42.2107 25.8225L42.4875 25.3785L42.8737 26.0994V25.6553L43.2602 25.3208L43.0929 24.4384L42.8161 24.3807L42.9834 23.8847L42.3192 23.5494L42.3206 23.5502ZM39.3325 26.0424V26.3192L39.6093 26.1001L39.3322 26.0419L39.3325 26.0424ZM18.0689 26.2612L17.8497 26.4863L17.9594 26.6535L18.0682 26.2614L18.0689 26.2612ZM35.0135 26.3182L34.2349 27.5351L33.8485 27.7023L34.0157 27.8119L33.7967 28.0887L32.6894 28.5327L31.9109 29.7496L30.5844 30.3032L30.3593 31.4104L29.3674 31.3585L29.2002 31.0817L28.5887 31.9123V32.5754L28.8655 32.7427L28.756 33.1809L29.1425 33.2964H28.8657L29.2002 33.5156L29.0329 33.7924L29.4194 33.5732L29.6962 35.0092L30.8034 34.6804L30.9706 35.2341L31.8589 34.5651L32.3549 34.6804V34.9572L33.0759 34.7324L33.1856 35.3957L33.52 35.2341L34.512 34.3459L34.3504 34.1269L34.5697 34.1788L34.7889 33.5156L34.4024 33.2964L34.8465 32.6274L35.0137 32.7427L35.6192 32.2986L35.4578 31.6355L35.9537 31.024L35.8443 30.7472L36.2306 30.9662L36.7267 30.7472L35.7864 30.1935L35.7346 29.9167L36.0114 29.8072L35.1232 28.9189L35.7346 28.8095L35.4578 28.423L36.3977 28.1462L36.0632 27.8117L37.0035 27.3157L36.2882 27.0909L35.9537 27.2064L36.0115 26.9296L35.6192 27.091L35.7864 26.7045L35.3424 26.3182L35.0656 26.7045L35.0137 26.3187L35.0135 26.3182ZM93.315 26.5952L93.4764 26.8719L93.5918 26.9816L93.3667 26.5952H93.315ZM93.9779 27.5352L94.197 27.8697L94.2547 27.9217L93.9776 27.5358L93.9779 27.5352ZM94.4219 28.2563L94.8084 29.1962L94.9756 29.1444L94.4215 28.2563H94.4219ZM44.8698 28.7522L44.6447 29.2541L44.8698 29.1962V28.7522ZM44.3675 29.0874L43.8715 30.0851L44.0907 31.0829L44.7539 31.5788L44.4252 31.0829L44.3155 30.5293L45.1979 30.6388L44.5348 30.2523L44.9789 29.9755L45.0307 29.5835L44.0907 30.1371L44.4252 29.8083L44.3683 29.0859L44.3675 29.0874ZM28.1441 29.6403L27.9251 29.8595L28.0348 30.0845L28.202 29.8077L28.1438 29.6407L28.1441 29.6403ZM41.9854 29.6985L40.9358 30.4136L38.3347 30.2521L38.1099 30.7481L37.8331 30.6384L37.6141 30.8577L37.5563 30.9671L37.4469 31.5207L37.2794 31.4688L37.5044 32.132L37.3372 31.9648L37.0027 32.4089L37.0604 33.0202L36.5643 33.7932L36.726 34.4045L37.2278 34.3467V35.5117L37.1701 36.0077L37.6718 35.9499H38.0583L37.7815 33.7932L38.2255 33.4584L38.5023 33.5163L38.387 34.237L38.9406 34.5658V35.1195L39.3327 35.2347L39.3847 34.8426L40.0479 34.733L39.4424 34.1274L39.7192 33.7351L38.6638 32.7952L38.9982 32.8528L40.4919 31.7456L38.9406 31.9129L38.5023 32.4664H38.1677L37.6142 31.9129L37.8332 31.0824L41.2129 30.7479L41.9833 29.7016L41.9854 29.6985ZM17.9601 30.3045L18.0178 30.5813L18.1274 30.362L17.9591 30.3038L17.9601 30.3045ZM20.341 30.8573L18.8473 31.1341L19.0087 31.7973L19.8393 32.2413L20.3929 33.1295L21.1138 33.3488L21.3387 34.456L21.9443 34.9L22.2211 35.0672L23.1611 36.7282L24.9893 38.0029L25.4334 38.3894L25.3757 38.0549L25.8774 38.1643L25.9293 37.8356L26.2638 38.1643L26.483 35.8979L26.0965 35.2865L25.543 35.3442L25.4335 35.621L25.543 35.1769H25.2142L25.1566 34.4042L24.326 34.3464L24.6605 33.5161L24.3838 33.3489L23.882 33.7352L24.2167 33.4584L24.0494 33.297L23.7149 33.349L22.7229 32.4089L22.6652 32.853L22.0019 32.1896L21.8347 32.0223L20.7275 31.6361L20.837 31.3593L20.3399 30.8583L20.341 30.8573ZM24.0502 33.2976H24.1598L23.9408 33.1304L23.7736 33.0728L23.7157 33.2976H24.0497H24.0502ZM47.2456 30.8573L46.3056 30.9667L46.9688 31.0245L47.2458 30.8563L47.2456 30.8573ZM48.2437 30.9674L47.1942 31.4114L46.9174 31.9133H47.8574L48.1342 32.5764L49.576 32.3516L49.299 32.9057L48.9066 32.6289L48.4684 32.9634H47.7994L48.578 33.3499L48.63 34.0131L49.1317 33.7941L49.4085 33.0211L49.2413 33.5171L49.5758 33.7939L50.406 33.8515L50.1294 34.0129L50.6251 34.2897L53.1743 35.0683L53.1166 35.3451L53.3934 35.2874V35.8409L53.8376 36.2849L53.5031 36.3945L54.1144 36.5617L53.6124 36.6195L54.0566 36.8962L53.8893 37.5019L54.7775 37.2827L55.7177 38.3322L56.6578 38.2803L56.9923 38.4994L57.6556 38.0555L56.6578 37.5019L57.9324 37.6115L57.6556 37.3347L58.1573 37.4499L57.8805 36.9482L58.6533 37.3347L58.5438 37.0059L58.6533 37.2251L58.8725 37.0059L58.93 37.2827L59.9797 37.6692L61.2025 39.3301L61.3118 39.4396L62.973 39.8261L63.3017 40.1606L63.913 39.8261L63.1921 39.6069L63.0826 39.5492L62.9731 39.3876L63.1921 39.2204L62.5867 39.0532V38.6091L62.0329 38.6669L61.6984 37.7787L60.9257 37.173L60.7007 36.5617H61.4792L61.312 36.1177L59.7607 35.4545V34.9585L58.7111 34.0127L54.8355 32.519L53.0072 31.8557L52.2863 32.1325L52.3441 32.4093L51.6749 32.4669L51.1214 33.182L50.5677 33.4071L50.1295 32.6861L50.014 33.0206L49.7372 32.5766L49.5758 31.2443L48.2499 30.9672L48.2437 30.9674ZM44.0386 31.1344L43.7618 31.2438V31.3016L43.9233 31.5783L44.3154 31.5206L44.0383 31.1347L44.0386 31.1344ZM50.7929 31.1925L51.3466 31.6366L51.6753 31.5788L50.7923 31.1929L50.7929 31.1925ZM47.0267 31.4683L46.692 31.5202L46.9688 31.797L47.027 31.4681L47.0267 31.4683ZM10.5429 31.7973L10.4274 31.9128L10.3754 31.9645H10.4274L10.5947 32.0222H10.4274L10.3754 32.3511L10.3525 32.4549L10.3179 32.5182V32.6048L10.1506 33.3488L10.0987 33.1814L10.1506 34.0119L10.2083 34.7329L10.762 34.2368L11.0965 33.4583L10.9813 32.5184L10.5429 31.7973ZM44.0917 31.9642L43.8725 32.1891H44.5358L44.4262 32.0738L44.0922 31.9637L44.0917 31.9642ZM50.8448 31.9642L51.3465 32.1315H52.1192L50.844 31.9645L50.8448 31.9642ZM40.0485 32.1325L40.1063 32.4093L40.6022 32.1325H40.0481H40.0485ZM46.4157 32.1325L45.8621 32.2998L46.3638 32.3517L46.4157 32.1329V32.1325ZM41.4325 32.3514L41.323 32.6859L42.1015 32.4666L41.4335 32.3515L41.4325 32.3514ZM25.3242 32.5766L25.0474 32.7958H25.2146L25.3242 32.9053V32.5764V32.5766ZM61.202 32.7435L60.4232 32.7955L60.8097 32.8532L61.2032 32.7432L61.202 32.7435ZM23.5543 32.9055L23.6062 33.1821V33.24L23.7736 32.9632L23.5547 32.905L23.5543 32.9055ZM45.3075 33.0725L44.5461 33.3088L44.8116 33.6259L46.0285 33.4587L46.8587 33.851L46.4148 33.13L45.3079 33.0718L45.3075 33.0725ZM44.5472 33.3078L44.5356 33.2964L44.524 33.3195L44.5468 33.3082L44.5472 33.3078ZM44.5231 33.3204L44.4252 33.3493L44.3155 33.7356L44.523 33.3207L44.5231 33.3204ZM19.2341 33.1294L19.009 33.1813L19.5627 33.3486L19.2338 33.1298L19.2341 33.1294ZM43.3706 33.4064L42.7073 33.6254L43.2611 34.0119L43.7628 33.7929L43.3694 33.4071L43.3706 33.4064ZM64.8771 34.1503L65.2975 34.5143L65.7417 35.5121L65.8512 34.9585L64.8771 34.1501V34.1503ZM25.2141 33.5734V33.7927L25.6006 33.7349L25.2135 33.5742L25.2141 33.5734ZM20.1171 33.7936L19.9557 33.9608L20.1746 34.2375L20.4514 34.4049L20.5091 34.0702L20.117 33.7944L20.1171 33.7936ZM4.04923 34.0289L3.89919 34.346V34.4557L4.04923 34.0281V34.0289ZM3.89931 34.4565L3.78406 34.6813V34.7794L3.89931 34.4556V34.4565ZM26.433 34.5653L25.8793 34.7325L25.7121 35.119L26.208 35.067L26.3752 35.563L26.9288 35.6207L27.0385 35.2342L26.6003 35.1766L26.432 34.5643L26.433 34.5653ZM40.2161 34.6817L39.9972 35.2354L39.8875 35.8409L40.3257 35.4545L40.1067 35.3449L40.2168 34.6808L40.2161 34.6817ZM3.7728 34.8132L3.67489 35.0093L3.62302 35.1766V35.2342L3.7728 34.813V34.8132ZM3.62302 35.2345L3.5652 35.396L3.62302 35.2864V35.2345ZM64.5761 34.8423L64.7434 35.396L64.0801 35.84L63.4169 35.7881V35.396L63.192 35.7881L61.9176 35.7304L62.973 36.3936L64.1898 36.284L65.078 35.8978L64.9626 35.5633L65.3549 35.0672L65.13 34.9L64.5759 34.8418L64.5761 34.8423ZM39.9386 34.9574L39.6099 35.067L39.5523 35.563L39.8292 35.6207L39.8868 35.2342L39.9374 34.9559L39.9386 34.9574ZM27.6483 35.0675L27.5907 35.6212H27.9252V35.5635L28.1442 35.1195L27.6495 35.0676L27.6483 35.0675ZM50.1301 35.0675L49.7954 35.3443L49.8532 35.5635L49.7377 36.3421L50.2394 35.7884L50.1294 35.0685L50.1301 35.0675ZM3.56482 35.4015L3.50714 35.511V35.5744L3.56482 35.4011V35.4015ZM3.50714 35.5748L3.46096 35.7132L3.50714 35.621V35.5754V35.5748ZM21.2247 35.4534L21.0057 35.7302L21.4497 36.0646L21.2245 35.4536L21.2247 35.4534ZM3.45527 35.7304L3.39758 35.8398V35.9149L3.45527 35.7302V35.7304ZM3.39758 35.9151L3.36886 36.013L3.39758 35.9496V35.9155V35.9151ZM3.36886 36.0138L3.2879 36.1755V36.2676L3.36886 36.0133V36.0138ZM3.2879 36.2668L3.23034 36.4515L3.2879 36.2841V36.2664V36.2668ZM3.23034 36.4515L3.17847 36.5609L3.13229 36.7744L3.23034 36.4505V36.4515ZM3.13229 36.7741L2.73442 38.1122L2.56718 38.7753L2.38829 39.6174L2.34794 39.6636L2.12313 40.6555L2.08847 40.8806L2.11162 40.8344L2.12326 40.771V40.7997L2.11162 40.8344L2.08847 40.9323L2.12313 40.8228L2.07114 41.0478L2.05381 41.1227L2.07114 41.0248L2.04217 41.1517L2.05381 41.1285V41.14L2.0366 41.2266L2.02496 41.2439L2.04217 41.1517L2.01358 41.2094V41.296L1.98461 41.4401L1.96145 41.4863V41.544L1.90377 41.8208L1.86923 42.0515L1.90377 41.9073V41.988L1.86923 42.0514L1.86341 42.0686L1.85759 42.0859L1.84608 42.0976V42.1668L1.80572 42.4089L1.79408 42.4321V42.4724L1.77093 42.634L1.79408 42.5128V42.5935L1.77675 42.6282L1.77093 42.634L1.75955 42.6685L1.7364 42.7089V42.8012L1.6844 43.0375L1.7364 42.8186V42.9858L1.6844 43.0375V43.3145L1.62684 43.424V43.649L1.56915 43.7585V44.093L1.51716 44.145V44.4219L1.45947 44.5316V44.866L1.40747 45.0332V45.3619L1.34979 45.4774V45.9156L1.2921 46.0829V46.5269L1.93792 41.8036L1.96108 41.7632V41.6651L1.94387 41.7806L1.92654 41.7979L1.96108 41.6651V41.6538L2.01307 41.4346L2.01889 41.3827L2.07076 41.1576V41.0999L2.34756 39.8832L2.62436 38.6085L3.12027 36.838L3.13229 36.7722V36.7741ZM1.2926 46.5267L1.24061 46.6363V47.0228L1.2926 46.5256V46.5267ZM1.24061 47.0238L1.21189 47.3063L1.24061 47.2486V47.0247V47.0238ZM1.21189 47.3059L1.18292 47.3579V47.5769L1.21189 47.3063V47.3059ZM1.18292 47.5767L1.1599 48.1246L1.18292 48.0787V47.5764V47.5767ZM1.1599 48.1245L1.13118 48.1878V48.8511L1.1599 48.125V48.1245ZM1.13118 48.8506L1.11954 49.26L1.13118 49.2371V48.85V48.8506ZM1.11954 49.2605L1.07336 49.3529V51.0658L1.11954 49.2605ZM1.07336 51.0658V52.6172L1.13118 52.7272V53.7827L1.1771 53.8807L1.07336 51.0659V51.0658ZM1.1771 53.8806L1.18292 54.0017V53.8921L1.1771 53.8807V53.8806ZM2.08834 40.8806L2.07114 40.9324V40.9901L2.08278 40.9614L2.08834 40.8806ZM67.2352 36.1745L67.4542 36.8952L67.8465 37.4489H68.1752L67.2352 36.1737V36.1745ZM22.1121 36.6704L22.3314 37.0569V36.7801L22.1125 36.67L22.1121 36.6704ZM53.2269 36.8386L52.7308 37.5596H53.0597L53.8899 37.2828L54.0053 36.8963L53.2273 36.8394L53.2269 36.8386ZM42.7065 37.2245L42.5969 37.5013L43.4851 37.2245H42.7071H42.7065ZM68.6192 37.3915L69.0057 38.0029L69.4497 38.1643L68.6186 37.3913L68.6192 37.3915ZM41.4894 37.6685L41.3799 37.9453L41.9335 37.8356L41.9854 37.6684H41.4894V37.6685ZM30.4174 37.7267L29.9214 38.2228L28.7564 38.39L28.2604 38.0035L26.5417 38.0555L26.3745 38.609L25.9304 38.9435L26.9282 38.8858L26.8764 39.2203L27.9836 39.2723L28.7564 39.053L30.1982 39.2203L32.8511 39.1108L33.3529 39.1627L33.2434 38.6668L33.1857 38.39L32.1359 38.4994L31.6342 37.8363L30.4184 37.7287L30.4174 37.7267ZM33.2424 38.6667L33.7381 39.1626L34.2342 38.7185L33.6285 38.6667H33.2426H33.2424ZM32.8502 37.7786L31.8007 37.9458L32.412 38.0554L32.8509 37.7783L32.8502 37.7786ZM40.1054 37.7786L39.7708 38.2228L40.2149 38.0035L40.1061 37.7783L40.1054 37.7786ZM39.7715 38.2226L38.9987 38.3321L38.0588 38.1131L37.724 38.4417L37.5568 38.609H37.724L39.1083 38.5571L39.7725 38.2219L39.7715 38.2226ZM41.3225 37.7786L41.0457 37.888L41.2129 38.0554L41.323 37.7796L41.3225 37.7786ZM43.8716 37.7786L42.0434 38.1131L40.8264 38.9955L40.7687 39.33L40.6592 39.6644L41.1032 39.5492L41.5473 39.2724L43.8725 37.7796L43.8716 37.7786ZM2.8436 37.9456L2.73417 38.3318V38.3896L2.8436 37.9456ZM36.0116 38.2226L35.8444 38.3899L36.3403 38.6667L35.3425 38.557L35.0657 38.8338L35.2908 39.1625L37.0613 38.5569L36.0125 38.2229L36.0116 38.2226ZM70.1133 38.3896L70.5575 38.9431L71.2783 39.4967L70.1132 38.3897L70.1133 38.3896ZM34.6795 38.5566L34.4603 38.9948L34.9563 39.0525L35.014 38.5566H34.6787H34.6795ZM69.2821 38.6667L69.1149 38.8857L69.6166 39.2721L69.2814 38.6674L69.2821 38.6667ZM37.7233 38.9956L36.893 39.3301L37.7233 39.6646H37.7811L38.1675 39.8261L38.4443 39.5493L37.7811 39.0533L37.7229 38.9964L37.7233 38.9956ZM71.7743 39.3878L72.051 40.2183L72.3278 40.6048L71.7737 39.3878H71.7743ZM56.883 39.6066L56.5485 39.8259L56.4967 40.7141L56.0526 41.158L56.3813 41.21L55.9429 42.2653L56.0526 43.315L55.1124 45.4778L54.6107 45.4201H54.2819L53.8378 44.8664L51.9001 43.9781L50.8446 43.0957L51.3982 42.0403L51.2368 41.7115L51.7328 41.6538V41.2673L52.177 40.881L51.7905 40.4945L51.3464 41.0482V40.6559L51.0119 40.7714L51.2367 40.5463L50.683 40.881L50.2389 40.5463L49.7372 40.7714L49.5758 40.3791L49.1834 40.4946L47.9147 39.8833L47.7475 40.0505L48.5203 40.3274L48.578 40.7714L47.4708 40.881L47.3034 40.7137L46.917 40.9904L47.0843 41.2096L46.7498 40.9904L46.8592 41.2672H46.5306V41.8208L46.0865 41.988L45.752 42.709L46.3058 42.9858L45.9768 43.424L45.7 43.1472L45.5848 43.5395L45.5328 43.2048L45.0887 43.0954L44.8121 43.3722L44.9215 43.7584L44.7543 43.4816L44.6447 43.7584L44.8121 43.0952L44.0911 42.4319L43.6471 42.3167L43.4278 42.7607L43.3701 42.4839L43.0933 42.7607L42.9319 42.4839L42.8741 43.1471L42.5973 42.8184L42.2109 43.2625L42.5396 43.5911L41.9859 43.6488L42.3782 43.9776L41.8764 43.7008L41.6572 44.093L41.7668 44.3698L41.934 44.2026L41.7092 44.6986H42.1532L41.7092 44.8658L40.9939 44.589V45.0332L41.3804 45.1428V45.5291L41.0459 45.31L41.1036 45.8635L40.4923 44.808L39.9386 45.6386L40.1636 46.3595L39.2179 47.6918L38.3873 47.9686L37.6722 48.2454L36.3975 49.0757L35.9534 48.9604L34.4597 50.2927L34.2925 50.9558L33.958 50.4022L33.8485 52.6747L34.679 54.2201L34.4022 53.9435L34.3041 54.1453L34.4597 54.497L33.9061 54.1683L35.5672 56.5501L35.7862 57.2652L35.8957 57.7093L36.7263 58.8743L36.7838 60.0335L36.3398 60.2583L36.5646 60.9793L37.7238 61.4175L38.612 61.3657L39.7712 60.1487H39.829L42.3205 59.9239L42.7645 59.0936L43.9237 58.3727L47.6896 57.4901L49.9619 58.3205L49.8524 58.7072L50.3483 58.9261L50.9021 60.1487L50.6251 60.0912L51.2366 60.4776V60.0912L52.563 58.7647V58.3205L52.6726 59.2608L52.2861 59.7567V60.3681H52.0093L51.842 60.7026L52.5053 60.5873L52.7821 59.7568L53.1166 60.3105L52.7301 61.0315L53.2838 60.9218L53.728 61.3084L53.8376 61.5851L53.7799 61.4757L53.8376 62.3639L54.0047 62.5829L54.3913 63.079L56.3288 63.9093L57.3266 63.079L57.4362 63.3558L57.1016 63.4711H57.713L57.6034 63.6902L58.1571 64.1344V63.8576L59.374 63.3038L59.0394 63.4134L59.2066 63.2462L60.8098 63.079L61.1445 61.5851L61.6982 61.0892L61.5309 60.9219L62.1422 59.8146L63.2497 59.0419L63.14 58.7651L63.8032 57.8769L64.08 56.9887L64.5241 55.8815L64.2473 54.6644L64.5241 53.5052L63.6359 51.7291L62.9729 51.1753V50.1834L62.9151 50.4602L62.4709 49.9065V50.4024L62.3096 50.1256L62.1424 50.2929L61.6406 48.1877L59.7029 46.8613L59.5413 45.1428L59.0973 44.6987L59.1492 43.424L58.4859 42.709L57.8228 42.8704L57.7133 41.4864L56.8821 39.6052L56.883 39.6066ZM34.3038 54.1463L34.0729 53.6157L34.2921 54.1694L34.3048 54.1454L34.3038 54.1463ZM46.5308 39.9925L47.0269 40.6039L47.5228 40.1597L47.0845 40.1022L46.9173 40.2694L46.5302 39.9936L46.5308 39.9925ZM71.0532 40.0507L70.9437 40.2179L71.2782 40.3793L71.8836 40.7141L71.2782 40.218L71.0543 40.0498L71.0532 40.0507ZM46.5308 40.1025L46.254 40.4946L46.7501 40.4369L46.5312 40.1029L46.5308 40.1025ZM72.2184 41.0488L72.7144 41.6543L73.0489 41.7639L72.219 41.0478L72.2184 41.0488ZM96.7977 41.4865L96.7458 41.5442L96.8553 41.821L96.7971 41.4858L96.7977 41.4865ZM51.9517 41.9888L51.6749 42.3176L51.6232 42.5424L52.1191 42.5943L51.9521 41.9883L51.9517 41.9888ZM1.84545 42.2646V42.3166L1.82242 42.3626L1.84545 42.2652V42.2646ZM75.8163 45.6968L75.7586 45.9736L75.8163 46.5848L76.1508 46.5272L75.8168 45.6973L75.8163 45.6968ZM76.0351 46.9707L76.1504 47.4147L76.3696 47.5244L76.2024 46.9707H76.0354H76.0351ZM77.0333 49.5148L76.924 49.6823V49.74L77.143 49.7917L77.0329 49.5147L77.0333 49.5148ZM84.4556 49.74L83.4578 49.959L84.2881 50.2358L84.3401 49.959L84.0633 50.0685L84.4567 49.7396L84.4556 49.74ZM73.2153 49.8488L73.7113 51.1232L74.9858 52.2824L73.2159 49.8497L73.2153 49.8488ZM83.1816 50.2928L82.4606 50.6215L82.7953 51.0135L83.2913 50.9558L83.1812 50.2929L83.1816 50.2928ZM64.6861 52.4498L64.4094 53.0611L64.467 53.3379L64.6858 52.4498H64.6861ZM1.18254 54.336V54.5551L1.20569 54.6011L1.18254 54.3367V54.336ZM1.20569 54.6017L1.24023 54.9998V54.6651L1.20569 54.6017ZM1.24023 54.9989V55.2756L1.29222 55.3852L1.24023 54.9981V54.9989ZM2.29556 59.3761L2.34756 59.6472L2.5148 60.3682L2.5668 60.8643L2.5148 60.8123L2.67623 61.3084L2.62436 61.366L2.84335 62.1387L2.73392 61.81L2.84335 62.3636L2.90116 62.5251V62.7499L2.84335 62.4154L2.90116 62.8019L3.01059 63.1363L2.9529 63.0268L3.06828 64.0246L3.39695 65.1838L4.06023 66.8447L4.50428 68.177L4.83877 69.0075L5.77873 70.6684L5.94597 70.7203L5.77873 69.6705L3.67375 63.7995L3.39695 63.0788L3.34508 62.6923L3.01046 61.7522V61.5848L3.17783 61.9196L3.06815 61.3659L2.51455 59.7049L2.29556 59.3773V59.3761ZM2.07076 60.645L2.18031 61.0315V60.9795L2.07076 60.6455V60.645ZM2.18031 60.9803L2.238 61.0323L2.18031 60.813V60.98V60.9803ZM2.12275 61.0891V61.2563L2.16311 61.2907L2.18031 61.3945V61.3082L2.15716 61.262L2.12275 61.0874V61.0891ZM2.18031 61.3952V61.5339L2.22067 61.6088V61.6146L2.238 61.6953V61.5857L2.20903 61.5628L2.18031 61.3945V61.3952ZM2.238 61.695V61.7528L2.29 61.9718V61.8105L2.238 61.6954V61.695ZM2.29 61.9721L2.34756 62.22V62.249L2.35907 62.278L2.39943 62.4452V62.4739L2.41107 62.4971L2.45724 62.6933V62.5261L2.39943 62.4165V62.2493L2.34756 62.1397V62.0878L2.29 61.9727V61.9721ZM2.45724 62.6932V62.7507L2.5668 63.1256V63.1372L2.58413 63.1718L2.62449 63.3045V63.3565L2.65902 63.4255L2.66484 63.4429L2.67623 63.4947V63.5814L2.73404 63.691V63.8004L2.79173 63.91V63.9678L2.81476 63.9907L2.84347 64.1062V64.1351L2.86093 64.1695L2.90129 64.3253V64.3541L2.91862 64.3943L2.95316 64.5212V64.5791L2.99351 64.6481L3.01084 64.7059V64.7982L3.06866 64.9077V65.0174L3.17834 65.2422V65.2942L3.23021 65.4093V65.519L3.30523 65.6573L3.3108 65.6691L3.34546 65.7383L3.28764 65.5191L3.23008 65.3229V65.2942L3.21275 65.2594L2.90141 64.1867L2.73417 63.633V63.6273L2.67635 63.4486V63.414L2.6532 63.362L2.62449 63.2871V63.2467L2.59552 63.1948L2.5668 63.0909V63.0276L2.5148 62.918V62.8027L2.45724 62.6876V62.6932ZM3.34546 65.7383L3.34533 65.8477L3.3972 65.9631V66.0726L3.50676 66.2916V66.4013L3.62226 66.6262L3.34533 65.7369L3.34546 65.7383ZM3.62226 66.6262V66.7358L3.71448 66.9262L3.62226 66.6262ZM3.71448 66.9262L3.73169 66.9722V66.9549L3.71436 66.9271L3.71448 66.9262ZM3.73169 66.9717V67.0699L3.81253 67.2254L3.73169 66.9711V66.9717ZM3.81253 67.226L3.89893 67.5086V67.3991L3.81253 67.227V67.226ZM3.89893 67.5081V67.5658L3.95675 67.6869L3.89893 67.5072V67.5081ZM3.95675 67.6878L4.00849 67.8435L4.06049 67.9818V67.901L3.95675 67.6885V67.6878ZM4.06049 67.9813V68.0102L4.09502 68.0851L4.06049 67.9813ZM4.09502 68.0851L4.22773 68.4369V68.3389L4.09502 68.0859V68.0851ZM4.22773 68.4367V68.454L4.25645 68.5058L4.22773 68.4362V68.4367ZM4.25645 68.5063L4.33741 68.7313L4.3951 68.8696V68.7831L4.25645 68.506V68.5063ZM4.39497 68.8693V68.8925L4.44672 68.9962L4.39497 68.8697V68.8693ZM4.44672 68.9958L4.56222 69.2785V69.2266L4.44672 68.9964V68.9958ZM4.56222 69.2792V69.3369L4.71226 69.6427L4.56222 69.2785V69.2792ZM4.71226 69.6423L4.78146 69.8094V69.7805L4.71226 69.6426V69.6423ZM4.78146 69.8093V69.8901L4.83915 69.9477L4.78146 69.8098V69.8093ZM4.78146 69.8901L5.00626 70.3862V70.2767L4.89089 70.0575L4.83902 69.9999L4.78146 69.8899V69.8901ZM51.6744 61.0891L51.9512 61.3659L52.7297 61.1408L51.6747 61.0889L51.6744 61.0891ZM5.11544 62.5249L5.225 62.969V62.6922L5.11544 62.5252V62.5249ZM75.7591 63.3561L75.8744 65.1841L75.9264 64.8554L76.2032 65.1841L76.0359 65.4609L75.9264 65.2938V65.7954L76.1512 65.9051L75.9264 65.8473V66.5164L75.3726 67.2314L74.7672 67.4562L75.2055 68.1772L74.819 69.0077H74.7672L74.5422 69.169L74.7093 69.5612L75.2055 69.394L76.5377 67.9523L77.0336 68.0618L77.8121 67.0699L77.5873 66.8448L76.9818 67.0699L76.5377 66.5679L76.6473 65.5703L76.4281 66.1817L76.0936 65.6855L76.3704 65.351L76.2032 64.7973L76.428 64.3014L76.2607 64.3532L76.0359 63.7995L75.8744 63.9669L75.9264 63.4132L75.7606 63.3562L75.7591 63.3561ZM5.05851 63.8571V64.0761L5.22588 64.1339L5.05851 63.8568V63.8571ZM59.1485 64.7983V65.1328L59.3735 65.2425L59.1483 64.7984L59.1485 64.7983ZM56.9346 65.4612L56.8826 66.0725L57.3267 66.9029L57.1019 66.7356V67.0704L57.4884 67.6759L57.9901 68.0103L58.3189 67.2895L58.7629 67.7335L59.0397 66.6782L59.0974 66.903V65.6861L58.0998 66.0151L56.9334 65.4609L56.9346 65.4612ZM73.9361 68.2874L73.7113 68.3393V68.3567L73.9365 68.2871L73.9361 68.2874ZM73.7109 68.3557L73.3821 68.4536L71.8825 69.9993L70.833 70.4435L70.3371 70.3338L69.2296 71.0548V71.3316L69.1144 71.1642L68.7279 71.8275L69.2816 71.885L69.7834 72.4908L70.3888 72.2715L70.9425 72.1043L71.8825 70.778L72.3845 70.8297L72.8285 70.8875L72.6612 70.6684L72.938 70.2762L74.2125 69.4457L74.374 69.0592H74.155L74.4895 68.892L73.7686 69.0075L73.7079 68.3534L73.7109 68.3557ZM5.0408 70.4671L5.2255 70.8651V70.8297L5.0408 70.4666V70.4671ZM5.2255 70.8644V70.9452L5.33493 71.1642L5.37529 71.2047L5.33493 71.1065L5.2255 70.8649V70.8644ZM5.37529 71.2047L5.44449 71.3833L5.55999 71.6198V71.5506L5.39275 71.2218L5.37529 71.2053V71.2047ZM5.55999 71.6209V71.6613L5.72142 71.9957L5.75595 72.0303L5.55999 71.6217V71.6209ZM5.75595 72.0295L5.88866 72.3008V72.2718L5.7791 72.0527L5.75595 72.0299V72.0295ZM5.88866 72.3015V72.3822L6.05591 72.7168L6.11347 72.7686L5.88866 72.3005V72.3015ZM69.1733 72.3294L68.7867 72.7158L69.1156 72.6581L69.1738 72.3305L69.1733 72.3294ZM77.5355 72.6064L77.4777 72.7677L77.8122 72.6583L77.5364 72.6051L77.5355 72.6064ZM6.3909 73.3212V73.379L6.61014 73.8229L6.66783 73.8749L6.3909 73.3208V73.3212ZM21.3392 79.7466L21.1719 80.0812L21.0624 79.8561L21.0047 80.0812L20.7279 79.8044L21.3392 80.4674L21.2816 80.2426L21.6161 80.1906L21.2816 80.133L21.5006 79.9658L21.3412 79.7482L21.3392 79.7466ZM50.6828 83.7898L50.5156 84.3952L48.7971 84.2857L48.9643 84.897L48.4683 85.0643L47.6898 84.5623L46.9688 84.5106L46.6401 85.0065L45.8096 84.2857L46.0864 85.0065L45.6423 85.1161L44.9792 85.2833L44.2004 85.0065L43.7622 85.1161L43.0932 84.7296L42.5972 85.0064L42.1012 85.7792L39.6098 85.0642L39.7195 85.4506L39.0562 85.3929L38.9985 85.6177L38.9408 85.8369L37.5047 85.6177L37.9489 86.281L37.8912 86.6675L37.2279 86.8347L36.7837 87.2789L35.9532 87.0021L35.3419 87.7171L34.4019 87.5555L34.6787 87.8323L35.4573 88.2188L35.6187 88.6053L35.5074 88.8824L35.4555 89.1014L35.8937 89.6031V90.0473L35.5651 89.932L35.7323 90.3242L34.9538 90.1569L34.4577 90.2665L33.6792 89.932L32.4103 91.0392L32.2951 91.1546L31.7415 91.316L31.4125 91.097L30.7494 91.316L31.0262 91.9851L31.6316 92.2041L31.303 92.2618L31.5798 92.5386L31.6892 92.4235L31.966 92.7003L31.6315 92.7578L31.966 92.977L32.739 93.9229L33.2924 94.1997L33.9557 94.5283L34.071 94.586H33.9557L33.6269 94.5283L33.7943 94.6956L33.0733 94.8051L33.2923 94.9724L33.8461 95.0819L33.9556 95.2492L33.6268 95.3067L34.3478 95.6357L34.7343 95.9123L35.3399 96.2988L35.4552 96.6334V96.6912L35.5649 96.9102L36.009 97.187L35.6742 97.1293L36.5624 97.4638H36.6144L37.445 97.9597V98.0176H37.5025L37.889 98.127L38.829 98.6288H38.3329L38.6097 98.7385H38.8865L39.3306 98.8478L39.6074 98.9056L41.0435 99.292L41.2108 99.4016L42.3758 99.5688H42.814L43.3676 99.6784L44.1461 99.7879L44.4229 99.8456H47.0816L47.3006 99.7879L48.3504 99.736H48.7944L49.2962 99.6208L50.0689 99.736H50.2881L50.4034 99.6784L50.5131 99.736L51.0667 99.6784L54.2791 99.9552H54.775L54.7174 100.174L54.8328 100.232L55.6055 100.399L55.548 100.451L55.496 100.509L55.8246 100.451H56.3784V100.474L56.7705 100.451L57.0993 100.399L57.4858 100.342H57.5435L57.878 100.29L58.1548 100.232H58.0394L58.3162 100.174H58.4833L58.3738 100.122L58.0393 100.174H57.8779L58.0971 100.065H57.8779L58.0393 100.013H58.8178L59.1466 99.8976H58.9275L59.2043 99.8456H59.0948L59.9772 99.6208L59.6484 99.6784L59.1466 99.736L59.3139 99.6784L58.6506 99.7879L58.9853 99.6208L58.0393 99.7879L57.5434 99.736L59.0371 99.5112L59.2043 99.4016H58.8178L59.3139 99.344L59.3716 99.292L61.0324 98.7903H61.2516L62.4166 98.1848L62.7453 98.127L62.6936 98.1848L63.1895 98.0752L63.6912 97.7984L63.9103 97.6312L63.8528 97.464L63.1895 97.5736L62.6357 97.7984L62.8608 97.6832L61.6958 97.7984L62.2494 97.5216L61.9726 97.464H62.6936L62.9704 97.2448H63.1893L63.7431 97.0776H63.2989L62.9299 97.2391L62.6934 97.1873L63.8526 96.6914L64.2448 96.1894L64.3544 96.0799L65.1271 95.4685L64.2967 95.1917L63.8526 94.6957L64.0774 94.4767L63.4661 94.5285H63.3566L62.8607 94.0844L62.5261 94.2515L62.082 93.7556L61.8628 93.9746H61.361L61.1997 93.4787L60.5306 93.6977L60.3115 93.6459L59.7579 93.4787L59.4811 93.5884L58.2064 92.7578L58.0971 92.5386L57.601 91.9273L56.6552 91.4833L56.3262 91.8179H55.9399L55.9919 91.2065L56.655 90.4857L56.9895 90.6529L56.88 90.3761L57.2089 90.1568L57.4857 90.2088L57.601 89.8799L57.8778 89.9319L58.4832 89.6551L58.76 89.7705L59.481 89.1592L59.925 89.1014L60.0347 88.7727L59.8675 88.9399L59.481 88.1094L58.3735 87.7749L58.2063 87.4981L58.097 87.2213L57.9873 87.0023L56.932 86.61L56.6552 86.1717L54.9422 86.0044L55.1095 85.6699L54.1118 85.3931L54.6078 85.174V84.9492L54.0022 85.1163L52.4507 84.7877L51.2339 84.5109L50.6735 83.7885L50.6828 83.7898ZM57.8799 100.289L57.6551 100.341L58.0993 100.289H57.8804H57.8799ZM56.3808 100.474L55.8849 100.508L55.6081 100.566L56.2193 100.508H56.3808V100.475V100.474ZM58.7629 100.064L58.5439 100.122H58.6534L58.8206 100.064H58.7637H58.7629Z" fill="#B8B8B8"/>
<path d="M56.8468 39.6222L56.5123 39.8415L56.4605 40.7297L56.0164 41.1736L56.3451 41.2256L55.9067 42.2809L56.0164 43.3306L55.0762 45.4934L54.5745 45.4357H54.2457L53.8016 44.882L51.8639 43.9937L50.8084 43.1113L51.362 42.0559L51.2006 41.7271L51.6966 41.6694V41.2829L52.1408 40.8966L51.7543 40.5101L51.3102 41.0638V40.6715L50.9757 40.787L51.2005 40.5619L50.6468 40.8966L50.2027 40.5619L49.701 40.787L49.5396 40.3947L49.1473 40.5102L47.8785 39.8989L47.7113 40.0662L48.4841 40.343L48.5418 40.787L47.4346 40.8966L47.2672 40.7293L46.8808 41.006L47.0481 41.2252L46.7136 41.006L46.823 41.2828H46.4944V41.8364L46.0503 42.0036L45.7158 42.7246L46.2696 43.0014L45.9406 43.4396L45.6638 43.1628L45.5486 43.5551L45.4966 43.2204L45.0525 43.111L44.7759 43.3878L44.8853 43.774L44.7181 43.4972L44.6085 43.774L44.7759 43.1108L44.0549 42.4476L43.6109 42.3323L43.3916 42.7764L43.3339 42.4995L43.0571 42.7764L42.8957 42.4995L42.8379 43.1627L42.5611 42.834L42.1747 43.2781L42.5034 43.6068L41.9497 43.6644L42.342 43.9932L41.8402 43.7164L41.621 44.1086L41.7306 44.3854L41.8978 44.2182L41.673 44.7142H42.117L41.673 44.8815L40.9577 44.6047V45.0488L41.3442 45.1584V45.5447L41.0097 45.3256L41.0674 45.8791L40.4561 44.8236L39.9024 45.6542L40.1274 46.3751L39.1817 47.7074L38.3511 47.9842L37.636 48.261L36.3613 49.0913L35.9172 48.976L34.4235 50.3083L34.2563 50.9715L33.9218 50.4179L33.8123 52.6903L34.6428 54.2358L34.366 53.9591L34.2679 54.1609L34.4235 54.5126L33.8699 54.1839L35.531 56.5657L35.75 57.2808L35.8595 57.7249L36.6901 58.8899L36.7476 60.0491L36.3036 60.2739L36.5284 60.9949L37.6876 61.4331L38.5758 61.3813L39.735 60.1643H39.7928L42.2843 59.9395L42.7283 59.1092L43.8875 58.3883L47.6534 57.5057L49.9257 58.3362L49.8162 58.7228L50.3121 58.9417L50.8659 60.1643L50.5889 60.1068L51.2004 60.4932V60.1068L52.5268 58.7803V58.3362L52.6364 59.2764L52.2499 59.7723V60.3837H51.9731L51.8058 60.7182L52.4691 60.6029L52.7459 59.7724L53.0804 60.3261L52.6939 61.0471L53.2476 60.9374L53.6918 61.324L53.8014 61.6007L53.7437 61.4913L53.8014 62.3795L53.9685 62.5985L54.3551 63.0946L56.2926 63.9249L57.2904 63.0946L57.4 63.3714L57.0654 63.4867H57.6768L57.5672 63.7058L58.1209 64.15V63.8732L59.3378 63.3195L59.0032 63.429L59.1704 63.2618L60.7736 63.0946L61.1083 61.6007L61.662 61.1048L61.4947 60.9375L62.106 59.8302L63.2135 59.0575L63.1038 58.7807L63.767 57.8925L64.0438 57.0043L64.4879 55.8971L64.2111 54.6801L64.4879 53.5209L63.5997 51.7447L62.9367 51.1909V50.199L62.8789 50.4758L62.4347 49.9221V50.418L62.2734 50.1412L62.1062 50.3085L61.6044 48.2033L59.6667 46.8769L59.5051 45.1584L59.0611 44.7143L59.113 43.4396L58.4497 42.7246L57.7866 42.886L57.6771 41.502L56.8459 39.6208L56.8468 39.6222ZM34.2676 54.1619L34.0367 53.6313L34.2559 54.185L34.2686 54.161L34.2676 54.1619ZM46.4946 40.0081L46.9907 40.6195L47.4866 40.1753L47.0483 40.1178L46.8811 40.285L46.494 40.0092L46.4946 40.0081ZM46.4946 40.1182L46.2178 40.5102L46.7139 40.4525L46.495 40.1185L46.4946 40.1182ZM51.9155 42.0044L51.6387 42.3332L51.587 42.558L52.0829 42.6099L51.9159 42.0039L51.9155 42.0044ZM64.6499 52.4654L64.3732 53.0767L64.4308 53.3535L64.6496 52.4654H64.6499ZM51.6385 61.1047L51.9153 61.3815L52.6938 61.1564L51.6387 61.1045L51.6385 61.1047ZM59.1126 64.8139V65.1484L59.3375 65.2581L59.1123 64.814L59.1126 64.8139ZM56.8987 65.4768L56.8467 66.0881L57.2907 66.9185L57.0659 66.7513V67.086L57.4524 67.6915L57.9541 68.026L58.2829 67.3051L58.727 67.7492L59.0038 66.6938L59.0615 66.9186V65.7017L58.0638 66.0307L56.8974 65.4766L56.8987 65.4768Z" fill="#68328A"/>
<path fill-rule="evenodd" clip-rule="evenodd" d="M50.6828 83.7898L50.5156 84.3953L48.7971 84.2858L48.9644 84.897L48.4683 85.0644L47.6898 84.5624L46.9688 84.5107L46.6401 85.0066L45.8096 84.2858L46.0864 85.0066L45.6424 85.1162L44.9792 85.2834L44.2004 85.0066L43.7622 85.1162L43.0932 84.7297L42.5972 85.0065L42.1013 85.7793L39.6098 85.0643L39.7195 85.4506L39.0562 85.393L38.9985 85.6178L38.9408 85.837L37.5047 85.6178L37.9489 86.2811L37.8912 86.6675L37.2279 86.8348L36.7837 87.279L35.9532 87.0022L35.3419 87.7172L34.4019 87.5556L34.6787 87.8324L35.4573 88.2189L35.6187 88.6054L35.5074 88.8824L35.4555 89.1014L35.8937 89.6032V90.0473L35.5651 89.9321L35.7323 90.3243L34.9538 90.157L34.4577 90.2666L33.6792 89.9321L32.4103 91.0393L32.2951 91.1547L31.7415 91.3161L31.4125 91.0971L30.7494 91.3161L31.0262 91.9852L31.6317 92.2042L31.303 92.2619L31.5798 92.5387L31.6892 92.4236L31.966 92.7004L31.6315 92.7579L31.966 92.977C31.9672 92.9771 31.9786 93.0199 32.0263 93.0383C37.3626 95.0968 43.8227 96.4524 50.9373 96.487C52.0778 95.6139 54.1223 92.8466 55.2693 91.1261C56.737 88.9245 57.8679 86.9519 57.8679 86.9519L56.932 86.6101L56.6552 86.1717L54.9423 86.0045L55.1095 85.67L54.1119 85.3932L54.6078 85.1741V84.9493L54.0022 85.1164L53.5064 85.0128C52.7291 88.9938 51.6798 95.0736 50.9373 96.487L51.2339 84.5109L50.6735 83.7886L50.6828 83.7898Z" fill="#C181EA"/>
<path d="M25.1968 8.26864L25.0307 8.37938L24.9753 8.43474L25.4736 8.10254V8.15791L26.1933 7.71498L26.138 7.82571V7.88107L26.4148 7.77034L26.747 7.54887L26.6362 7.71498M16.3938 16.3522L16.2277 16.5736M16.2277 16.5736L16.6153 16.02H16.5045L16.726 15.6324L16.1724 15.9092L16.4492 15.577L16.1724 15.6878M16.2277 16.5736V16.7951L15.8402 17.1273L15.6741 17.1827L15.3419 17.7917L15.508 17.6256L15.6741 17.7363L15.8955 17.8471L15.6741 18.0685L15.4526 18.29L15.0097 18.9544L15.7848 19.0651L16.4492 18.6776L16.726 18.899L17.5011 18.6222L18.0547 18.4561L18.553 17.5149M16.1724 15.6878L16.5599 15.3556L16.9474 14.8573L16.6706 15.0234L17.0028 14.6358M16.1724 15.6878L14.9543 16.7397L14.6222 17.0719L14.4007 17.4041L13.9024 17.9578L13.7363 18.2346L13.3488 18.5115L13.1827 18.8437L12.7951 19.2312L12.2415 19.951L11.1896 21.1137L10.5805 21.9442L10.5252 22.0549L9.80545 22.9962L9.2518 23.6052M17.0028 14.6358L17.944 13.8053L18.3316 13.5838L18.8298 13.1409L20.38 11.9782L20.5461 11.8675L20.823 11.646L21.2659 11.2584L21.9303 10.6494L21.8195 10.7048H21.8749L22.7054 10.1511L22.8715 10.0957L23.0375 9.92964L24.0895 9.15451L24.5324 8.9884L24.9199 8.76694L25.695 8.21327L26.0826 8.04718L26.4701 7.77034L26.8577 7.60424M17.0028 14.6358L16.4492 15.1341V15.0787L16.1724 15.3556L15.7848 15.6878L15.9509 15.5217M26.8577 7.60424L26.6362 7.77034L27.1345 7.65961L27.0792 7.82571L26.304 8.49011L27.356 8.10254L27.965 8.04718L27.8543 8.49011L29.6813 7.93644L30.1242 7.82571L32.0066 7.65961L33.6675 7.05058L34.7194 6.82911L35.4392 6.55227L36.5465 6.05398L36.4357 5.88788L36.8787 5.61105L37.7645 5.55568L38.4289 5.27885L39.0932 5.11274L40.3112 4.66981L41.7507 4.44834L41.1971 4.17152L40.4773 4.33761L39.5915 4.39297L40.5327 3.78394H40.3666L39.4254 3.83932L39.0932 4.00541L38.6503 4.17152L37.2662 4.50372L36.2143 4.66981L36.1036 4.55908H35.9928L34.9963 4.66981L33.9443 5.00201H33.6122L33.8336 4.8359L33.0585 4.94665L32.7263 5.00201L31.7851 5.5003L31.6744 5.61105L31.3422 5.77714L31.0654 5.94325L30.0688 6.22007H30.0135L30.0688 6.10934L29.4598 6.33081L28.1311 6.93985L26.8577 7.60424ZM40.5881 3.78394H41.1417L41.9168 3.56248L42.5812 3.23028L43.1902 3.00881L42.9134 2.89808L43.4117 2.73197L44.685 2.56588L46.0138 2.62124L46.5674 3.11955V3.17491L46.6228 3.28564H47.564L48.173 3.39637L48.2837 3.67321L50.4983 3.50712L49.5018 4.39297L48.7266 4.33761L48.1176 4.50372L48.2837 5.00201L48.173 5.1681L47.6747 5.22348L47.8408 5.38958M7.64624 26.4843L8.03379 25.7091L8.53206 25.0447L8.69816 24.6572L8.64278 24.7679L9.03035 24.1035L8.97497 24.1589L9.2518 23.6052M9.2518 23.6052L9.36253 23.4945L9.97153 22.6086L10.0823 22.4425L10.0269 22.4979M13.7363 17.8471L13.9024 17.6256L15.7294 15.7985L15.6187 15.9646L15.0651 16.5736L15.9509 15.7431L16.3938 15.4663M18.553 17.5149L18.8852 17.2934L18.7745 17.9578L20.4354 17.1827V16.6844L19.6603 16.8505L18.7745 17.681M18.553 17.5149L17.6118 17.8471L17.4457 18.0132L16.5599 17.5702L16.3938 17.5149L15.8955 17.9024M16.6706 15.6878L15.9509 16.4075L14.899 17.1273L14.6222 17.4595L14.7329 17.4041L14.29 17.9578L14.4007 18.1239L13.847 18.7329L13.681 19.0098L12.9059 19.8956L11.5217 21.6674L11.0788 22.1103L11.0235 22.0549L10.4698 22.8301L10.3037 23.1069L10.4145 23.0515L10.193 23.4391H10.3037L10.0269 24.1589L9.36253 24.8233L9.19643 24.934L8.80888 25.543M13.9578 17.5702L14.3453 17.1827M15.9509 15.5217L16.0616 15.3556L16.4492 14.968V15.0234L16.8921 14.6358L16.7814 14.6912L16.5045 14.968L16.7814 14.7465L17.5565 14.0821L17.335 14.1929L17.5011 14.0821L17.1689 14.359L17.0582 14.4143L17.7226 13.8607L17.6672 13.916M15.9509 15.5217L16.6153 14.9126M17.6672 13.916L16.6706 14.8019L16.1724 15.3002H16.117M17.6672 13.916L17.944 13.6392L18.2208 13.4177L18.4423 13.2516L18.8298 12.9194L19.1067 12.6426L19.3281 12.5319L20.5461 11.7567L20.6015 11.8121M15.9509 15.4663L16.0063 15.4109L15.3973 16.02L15.1758 16.2968V16.2414L14.8436 16.629L14.2346 17.2934M16.5599 14.9126L16.5045 15.0234M47.7855 5.33421L47.3979 5.1681L47.2318 5.33421L46.1245 5.55568L46.1799 5.77714L45.2387 5.72178L44.7404 6.05398L43.5777 6.44154L43.4117 6.55227M44.5189 7.27205L44.9065 7.21667L45.0172 7.16131L45.128 7.05058L45.8477 6.99521L46.1245 6.82911M44.1868 7.32741H44.2975M4.71191 32.3531L4.76728 32.2424L5.09946 31.4673M17.3904 21.1691L17.7226 20.1725L17.6118 20.0064L17.8333 19.6188L17.5565 19.5081L18.2762 18.899L17.944 18.7883L18.3316 18.2346L18.6637 18.4007L18.8852 18.1793L18.7191 18.6776L20.1032 18.3454L19.0513 19.342L19.1067 19.7849L19.4942 19.1759L19.7157 19.1205L19.3835 20.56L19.2174 20.5047L19.0513 20.7815M20.9337 27.5916L21.3212 27.1487L21.5981 26.8165L22.3732 25.543L22.2624 24.2142L21.7642 23.5498L22.4839 22.4979L22.2624 22.6086L21.7642 21.3352L22.041 21.2798L22.4285 20.3939L22.9822 20.2832L23.4805 19.7295L23.8126 19.6742L23.868 19.6188M23.868 19.6188L24.8092 18.6776M23.868 19.6188L24.1448 19.6742L23.9787 20.0617L24.5324 19.8956L23.9787 21.2798H24.2002L24.8646 20.6708L25.1968 20.8369L25.5843 20.5047L25.7504 20.2832L26.1933 20.2278L26.6362 20.7261L26.5255 21.3352L27.0792 21.7227L26.6362 22.8301L27.1899 22.8854V22.5532L27.4113 22.4425H27.8543L28.3525 22.1103L28.5186 21.6674L28.1864 21.3905L28.4633 21.1691L27.8543 20.9476L27.0792 19.7849L26.304 19.6188L26.4701 19.342L26.8577 19.2866L27.1899 18.9544L26.8023 18.7883L27.0238 18.6222L26.6916 18.5115L26.3594 18.7883L26.0272 18.7329L25.8611 18.5668L26.0826 18.2346L25.8611 18.3454L25.5843 17.9578M20.38 16.7951L20.9337 16.5736L21.5427 15.9646L22.5393 15.3002H22.8715L23.3697 14.9126L23.5358 14.968L23.3144 15.2448L23.5358 15.0787V15.2448L23.2036 15.4663L23.8126 15.4109M23.8126 15.4109L23.3697 15.8539L23.4251 16.0753L22.8715 16.1861L22.0963 16.7397L20.823 18.6222L20.38 18.6776L19.8818 19.8403L19.4942 20.1725M23.8126 15.4109L24.0341 15.1341L24.2556 15.2448V15.577L24.477 15.4663L24.3663 15.9646L24.0895 16.5183L23.3144 17.1273L22.9268 17.9024L23.8126 17.4595L23.6466 18.0685L24.0341 18.1239L23.5912 18.6776L24.0895 18.5668V18.6222L24.1448 18.899L24.6431 18.6222L24.8092 18.6776M24.8092 18.6776V18.899L25.1414 18.7883L25.3075 18.0132L25.695 17.9578L25.9165 17.681L26.2487 17.7917L26.4701 17.5149L26.8577 17.5702L27.965 16.7951L28.2418 17.0166L28.9062 16.9058L28.6847 17.4595H29.4044L29.6259 17.5702M24.6431 25.0447L24.4217 23.7713L25.1414 23.1069L26.5809 22.7193M28.3525 22.0549L28.2418 22.6086L28.1864 22.7193L28.1311 23.7159L27.3006 24.2696L27.2452 24.3803L26.747 24.5464L26.9684 25.1001L26.1933 25.1555L25.6397 25.6538L25.3629 25.8752L25.1968 25.7645L25.2521 26.0413M21.8195 29.5848L22.2071 29.4741L22.2624 29.4187L22.3732 29.1972L22.7054 29.2526L22.9822 29.8616L23.4805 29.6402L23.6466 29.1972M29.2384 31.0797V31.4119L29.9027 31.9102L30.9547 31.578L31.4529 31.0797L32.3941 31.1904L33.1139 30.9136L34.2765 28.4775L35.9375 28.3667M32.837 28.4775L33.2246 28.865L33.5568 28.1453M33.5568 28.2006L33.8336 28.5328L33.6675 28.1453M24.9753 32.63L24.6431 32.7407M55.7026 32.8514L55.6472 38.222M7.64624 75.5945L7.5355 75.4838M43.5777 7.21667H43.6331V7.32741L43.5777 7.21667ZM33.9443 16.1307L34.3873 16.02V16.2968L33.9443 16.3522V16.1307Z" stroke="white" stroke-width="0.670947" stroke-linejoin="bevel"/>
<path d="M50.892 96.5483C39.3774 97.9009 27.6385 95.1857 18.3376 88.1881C15.0177 85.6397 12.0621 82.5244 9.70059 79.1082" stroke="black" stroke-opacity="0.466667" stroke-width="0.297" stroke-linecap="square" stroke-linejoin="round"/>
<path d="M50.892 96.5482C36.2461 95.0795 21.9696 87.0259 13.0786 75.2885C6.58898 66.9389 2.67657 56.6702 2.66949 46.1396C2.62078 38.3729 4.66478 30.8359 8.87031 24.2966" stroke="black" stroke-opacity="0.466667" stroke-width="0.297" stroke-linecap="square" stroke-linejoin="round"/>
<path d="M50.892 96.5483C42.0344 93.0066 34.7179 86.0072 29.1882 78.4437C22.0514 68.4084 17.304 56.5273 15.8454 44.5039C14.4297 32.5778 15.8872 19.7677 23.8733 10.6199C26.1705 8.19787 28.8793 6.21016 31.846 4.97266" stroke="black" stroke-opacity="0.466667" stroke-width="0.297" stroke-linecap="square" stroke-linejoin="round"/>
<path d="M50.8921 96.5483C54.4024 90.6948 56.0866 84.5016 57.8127 78.1109C61.7283 61.7723 63.5608 44.8632 63.3494 27.5619C62.9727 19.9759 62.7207 12.4681 59.9167 5.41526C59.1536 3.748 58.0065 1.69944 56.0966 1.48425" stroke="black" stroke-opacity="0.466667" stroke-width="0.297" stroke-linecap="square" stroke-linejoin="round"/>
<path d="M50.8921 96.5482C57.6375 93.7495 63.401 88.9167 68.1111 83.5368C76.6259 73.6296 82.5799 60.7741 84.7761 47.9373C86.7733 36.7036 86.188 24.365 80.513 14.6073C77.9297 10.2795 73.8949 6.51585 69.3846 4.7522" stroke="black" stroke-opacity="0.466667" stroke-width="0.297" stroke-linecap="square" stroke-linejoin="round"/>
<path d="M50.8921 96.5483C63.2923 95.2178 75.4714 89.0641 84.136 80.135C92.5777 71.5593 98.3707 59.7304 98.8388 47.6603C99.3145 38.8582 96.9831 30.2628 92.084 22.967" stroke="black" stroke-opacity="0.466667" stroke-width="0.297" stroke-linecap="square" stroke-linejoin="round"/>
<path d="M50.8921 96.5482C62.4959 97.8289 74.2987 94.9841 83.6135 87.9665C87.2281 85.1114 90.4574 81.7467 92.9149 77.7793" stroke="black" stroke-opacity="0.466667" stroke-width="0.297" stroke-linecap="square" stroke-linejoin="round"/>
<path d="M50.8921 96.5482C56.7968 99.0188 63.9933 99.5838 69.9379 97.1018" stroke="black" stroke-opacity="0.466667" stroke-width="0.297" stroke-linecap="square" stroke-linejoin="round"/>
<path d="M50.8921 96.5482C52.219 98.4213 54.0316 100.751 56.4841 100.535" stroke="black" stroke-opacity="0.466667" stroke-width="0.297" stroke-linecap="square" stroke-linejoin="round"/>
<path d="M50.8921 96.5482C49.6629 98.3952 48.0581 100.688 45.6877 100.59" stroke="black" stroke-opacity="0.466667" stroke-width="0.297" stroke-linecap="square" stroke-linejoin="round"/>
<path d="M50.892 96.5482C45.1207 99.0154 38.3183 99.6941 32.4003 97.3233" stroke="black" stroke-opacity="0.466667" stroke-width="0.297" stroke-linecap="square" stroke-linejoin="round"/>
<path d="M35.0582 98.265C34.5039 98.119 33.9947 97.893 33.4526 97.7114L33.4528 97.7109C30.4197 96.4244 26.7232 94.5502 25.9784 90.9561C25.8412 86.9879 29.843 84.8177 32.8992 83.4264C42.5719 79.6758 54.2045 79.4663 64.4024 81.9317C68.5253 83.1715 73.06 84.5745 75.4203 88.6308C77.0242 92.3222 73.2305 95.4784 70.2713 96.8249C69.1305 97.4009 67.9534 97.8887 66.7277 98.2643" stroke="black" stroke-opacity="0.466667" stroke-width="0.297" stroke-linecap="square" stroke-linejoin="round"/>
<path d="M9.20251 78.3336C6.84857 75.1379 7.55777 70.603 10.3097 67.8143C14.6553 63.2554 20.6088 61.0931 26.1448 59.3987C41.002 55.3647 58.2489 55.212 73.3161 58.7898C79.3042 60.3687 85.5087 62.4093 90.4491 66.7873C93.8464 69.6569 95.3464 74.4417 92.5832 78.3338" stroke="black" stroke-opacity="0.466667" stroke-width="0.297" stroke-linecap="square" stroke-linejoin="round"/>
<path d="M1.06372 51.0381C1.23261 45.0972 6.81177 41.1283 11.4723 38.6362C20.8378 33.8526 31.6682 31.9229 42.367 31.0511C55.8048 30.2237 69.3121 31.2134 81.8428 35.1482C87.6867 37.1202 93.4889 39.5548 97.8992 44.2835C99.4716 46.1853 100.762 48.5155 100.723 51.0381" stroke="black" stroke-opacity="0.466667" stroke-width="0.297" stroke-linecap="square" stroke-linejoin="round"/>
<path d="M9.20251 23.7425C12.7356 18.7514 18.9269 16.2474 24.3178 14.4411C36.3759 10.7164 49.98 9.99256 62.9079 11.3959C71.5303 12.5741 79.8867 14.2973 87.4354 18.9257C89.4051 20.2662 91.3236 21.8048 92.5843 23.7425" stroke="black" stroke-opacity="0.466667" stroke-width="0.297" stroke-linecap="square" stroke-linejoin="round"/>
<path d="M35.0582 3.81164C44.5684 0.766701 55.5653 0.760375 65.2331 3.31319C65.7307 3.51675 66.2384 3.5924 66.7278 3.81164" stroke="black" stroke-opacity="0.466667" stroke-width="0.297" stroke-linecap="square" stroke-linejoin="round"/>
<path d="M50.892 96.5482C46.721 89.9659 44.8146 82.9739 42.864 75.6199C39.1251 60.0252 37.3487 43.8979 37.6042 27.4518C38.0105 19.9442 38.2811 12.5769 41.2031 5.63788C41.9925 3.87258 43.3029 1.74723 45.3001 1.54077" stroke="black" stroke-opacity="0.466667" stroke-width="0.297" stroke-linecap="square" stroke-linejoin="round"/>
<path d="M100.716 50.9986C100.853 33.8669 91.4034 17.1019 76.672 8.36651C61.8174 -0.804097 42.1175 -1.21639 26.8833 7.30637C11.7035 15.4598 1.4209 32.035 1.05276 49.2819C0.172259 67.4562 10.3844 85.5962 26.3153 94.3506C41.433 103.123 61.2114 102.948 76.1748 93.9077C91.2079 85.2621 100.844 68.3403 100.716 50.9985V50.9986Z" stroke="#AAAAAA" stroke-linecap="square" stroke-linejoin="round"/>
</svg>
