<svg width="87" height="90" viewBox="0 0 87 90" fill="none" xmlns="http://www.w3.org/2000/svg">
<path fill-rule="evenodd" clip-rule="evenodd" d="M46.9017 39.2512L32.6954 53.4574L63.5826 46.3545C68.9266 46.3584 74.1077 44.5154 78.2488 41.1377C82.39 37.76 85.2367 33.055 86.307 27.8193C87.3773 22.5837 86.6055 17.139 84.1222 12.407C81.639 7.67507 77.5968 3.94664 72.68 1.85292C67.7633 -0.240792 62.2741 -0.57114 57.1417 0.917806C52.0094 2.40675 47.5492 5.62351 44.5164 10.0235C41.4835 14.4235 40.0643 19.7363 40.499 25.0626C40.9337 30.3888 43.1956 35.4012 46.9017 39.2512ZM63.5963 17.5032C64.7188 17.5028 65.8162 17.8354 66.7497 18.4588C67.6832 19.0823 68.4109 19.9685 68.8407 21.0055C69.2705 22.0425 69.3831 23.1836 69.1643 24.2846C68.9455 25.3856 68.4051 26.397 67.6114 27.1909C66.8178 27.9847 65.8066 28.5254 64.7056 28.7445C63.6047 28.9636 62.4635 28.8513 61.4264 28.4218C60.3893 27.9923 59.5028 27.2649 58.8792 26.3316C58.2555 25.3983 57.9226 24.3009 57.9226 23.1784C57.9226 21.6735 58.5203 20.2302 59.5843 19.166C60.6483 18.1017 62.0914 17.5036 63.5963 17.5032ZM77.9042 13.1626L75.6654 15.4019C76.5987 16.8517 77.263 18.4579 77.6264 20.1434H80.7946C81.1469 22.1513 81.1469 24.2053 80.7946 26.2133H77.6295C77.2632 27.8983 76.5973 29.504 75.6635 30.9537L77.9048 33.195C76.7334 34.863 75.2814 36.3149 73.6133 37.4861L71.374 35.2468C69.924 36.1797 68.3179 36.844 66.6325 37.2077V40.376C64.6245 40.7281 62.5706 40.7281 60.5626 40.376V37.2106C58.8779 36.8442 57.2726 36.1783 55.8231 35.2446L53.5818 37.4861C51.9135 36.3146 50.4613 34.8624 49.2898 33.194L51.5311 30.9525C50.5975 29.5031 49.9317 27.8978 49.5653 26.2131H46.3991C46.0469 24.2052 46.0469 22.1513 46.3991 20.1434H49.5686C49.9321 18.4579 50.5963 16.8517 51.5293 15.4017L49.2894 13.1626C50.4608 11.4942 51.9129 10.042 53.5812 8.87053L55.8226 11.112C57.2721 10.1783 58.8774 9.51243 60.5622 9.146V5.98086C62.5702 5.6286 64.6242 5.6286 66.6321 5.98086V9.14893C68.3176 9.51245 69.9237 10.1767 71.3736 11.1099L73.6133 8.87053C75.2813 10.0424 76.7335 11.4946 77.9054 13.1626H77.9042ZM57.3707 16.952C58.6021 15.7206 60.1711 14.8819 61.8792 14.5421C63.5873 14.2024 65.3577 14.3767 66.9667 15.0432C68.5757 15.7096 69.9509 16.8383 70.9185 18.2863C71.886 19.7343 72.4025 21.4368 72.4025 23.1783C72.4025 24.9199 71.886 26.6223 70.9185 28.0703C69.9509 29.5184 68.5757 30.647 66.9667 31.3134C65.3577 31.9799 63.5873 32.1543 61.8792 31.8145C60.1711 31.4747 58.6021 30.6361 57.3707 29.4046C55.7194 27.7533 54.7917 25.5136 54.7917 23.1783C54.7917 20.843 55.7194 18.6033 57.3707 16.952ZM79.0115 14.2691L77.625 15.6559C78.1223 16.5883 78.5273 17.5672 78.8341 18.5784H80.7946C81.1741 18.5784 81.5407 18.7162 81.8261 18.9663C82.1115 19.2163 82.2964 19.5616 82.3463 19.9378C82.5308 21.0079 82.6236 22.0919 82.6239 23.1778H82.6179C82.6195 24.2854 82.525 25.391 82.3353 26.4823C82.2681 26.8659 82.0602 27.2108 81.7523 27.4493C81.4443 27.6879 81.0585 27.8031 80.6702 27.7723H78.8386C78.5315 28.7858 78.1246 29.7662 77.624 30.6994L79.0113 32.0885C79.2835 32.3606 79.4458 32.7235 79.4673 33.1078C79.4888 33.4921 79.3679 33.8709 79.1277 34.1717C77.8651 35.9571 76.3034 37.511 74.5117 38.7648C74.2108 38.9764 73.8449 39.0751 73.4784 39.0434C73.1119 39.0118 72.7683 38.8519 72.5081 38.5919L72.5063 38.5936L71.1198 37.2071C70.1855 37.7053 69.2046 38.1109 68.1912 38.418V40.376C68.1911 40.743 68.0616 41.0982 67.8254 41.3792C67.5892 41.6601 67.2615 41.8487 66.9 41.9118V41.9167C65.8091 42.1062 64.7037 42.2007 63.5965 42.199V42.205C62.4887 42.2047 61.3831 42.1082 60.2921 41.9165C59.9295 41.853 59.6008 41.6637 59.364 41.3819C59.1271 41.1001 58.9971 40.7439 58.9969 40.3758H58.9959V38.418C57.9845 38.111 57.0059 37.7047 56.0745 37.205L54.6868 38.5927C54.4146 38.8648 54.0517 39.0272 53.6673 39.0486C53.283 39.0701 52.9042 38.9491 52.6034 38.7089C51.1341 37.6013 50.2443 36.8685 49.0217 35.4011L49.018 35.4042C48.6651 34.9837 48.3292 34.5468 48.0103 34.0934C47.7985 33.7922 47.6998 33.426 47.7317 33.0591C47.7636 32.6923 47.924 32.3486 48.1846 32.0885L48.1826 32.0867L49.5703 30.699C49.0707 29.7675 48.6644 28.7889 48.3573 27.7774H46.3991C46.0196 27.7774 45.6531 27.6396 45.3676 27.3895C45.0822 27.1394 44.8973 26.7941 44.8475 26.4179C44.4953 24.0958 44.4499 22.2063 44.8584 19.8736C44.9257 19.4899 45.1335 19.1452 45.4414 18.9066C45.7493 18.668 46.1351 18.5528 46.5234 18.5835H48.3579C48.6651 17.5701 49.0707 16.5893 49.569 15.6549L48.1822 14.2684C47.9101 13.9961 47.7478 13.6332 47.7264 13.2488C47.705 12.8645 47.826 12.4857 48.0662 12.1849C49.3293 10.4003 50.8909 8.84706 52.6825 7.59375C52.9834 7.38215 53.3493 7.28351 53.7158 7.31518C54.0823 7.34685 54.4259 7.50681 54.6861 7.7669L54.6878 7.76494L56.0755 9.15265C57.0089 8.65196 57.9895 8.24499 59.0031 7.9377V5.98125C59.0032 5.6142 59.1327 5.25894 59.3689 4.97798C59.6051 4.69702 59.9328 4.50838 60.2944 4.44524V4.44055C62.4802 4.05574 64.7165 4.05574 66.9023 4.44055C67.2649 4.50405 67.5935 4.69332 67.8304 4.9751C68.0673 5.25688 68.1972 5.61313 68.1975 5.98125V7.94141C69.2087 8.24823 70.1876 8.65318 71.12 9.1505L72.5065 7.76396C72.7789 7.49165 73.142 7.3293 73.5266 7.30797C73.9111 7.28664 74.29 7.40782 74.5907 7.64834C76.4944 9.08633 77.7911 10.2825 79.1831 12.2638C79.3947 12.5647 79.4934 12.9306 79.4617 13.2971C79.43 13.6636 79.2701 14.0072 79.01 14.2674L79.0119 14.2691H79.0115ZM27.5359 68.9933C30.8294 69.8925 33.7398 71.8416 35.8252 74.5448C37.9107 77.248 39.0573 80.5577 39.0912 83.9717C34.7905 87.8521 29.2037 90 23.4111 90C17.6185 90 12.0317 87.8521 7.73095 83.9717C7.76485 80.5577 8.91155 77.2479 10.997 74.5447C13.0825 71.8415 15.9929 69.8925 19.2865 68.9933C20.559 69.6605 21.9744 70.0091 23.4112 70.0091C24.848 70.0091 26.2634 69.6605 27.5359 68.9933ZM23.4109 53.8404C24.8551 53.8403 26.2669 54.2685 27.4677 55.0709C28.6686 55.8732 29.6046 57.0136 30.1573 58.3478C30.71 59.6821 30.8546 61.1503 30.5728 62.5668C30.2911 63.9832 29.5956 65.2843 28.5744 66.3055C27.5532 67.3267 26.2521 68.0222 24.8356 68.3039C23.4191 68.5856 21.9509 68.4409 20.6167 67.8882C19.2824 67.3354 18.142 66.3994 17.3398 65.1986C16.5375 63.9977 16.1093 62.5859 16.1094 61.1417C16.1096 59.2053 16.8789 57.3482 18.2482 55.979C19.6174 54.6098 21.4745 53.8405 23.4109 53.8404ZM23.4109 52.2753C21.5995 52.2753 19.8316 52.8301 18.345 53.8651C16.8584 54.9 15.7245 56.3654 15.0956 58.0641C14.4668 59.7628 14.3733 61.6133 14.8277 63.3668C15.2822 65.1202 16.2627 66.6924 17.6374 67.8719C14.5429 68.9742 11.8273 70.9368 9.80966 73.5291C7.79197 76.1214 6.55601 79.2357 6.24698 82.5061C2.32911 78.2819 0.106254 72.7614 0.00371217 67.0009C-0.0988295 61.2404 1.92614 55.6444 5.69119 51.2834C9.45625 46.9224 14.697 44.1027 20.4109 43.3638C26.1247 42.6249 31.9103 44.0186 36.6609 47.2783L31.5888 52.3508C31.3432 52.5977 31.1868 52.9194 31.1445 53.2651C31.1021 53.6107 31.1762 53.9607 31.3551 54.2596C31.5339 54.5584 31.8072 54.7891 32.1318 54.9153C32.4564 55.0414 32.8139 55.0557 33.1475 54.956L42.3646 52.8364C45.5463 57.2249 47.1071 62.5812 46.7808 67.9919C46.4546 73.4026 44.2615 78.5326 40.5756 82.5071C40.2667 79.2365 39.0307 76.122 37.013 73.5295C34.9953 70.9371 32.2796 68.9743 29.1849 67.8719C30.5598 66.6924 31.5405 65.1201 31.9949 63.3666C32.4494 61.6131 32.3559 59.7624 31.727 58.0637C31.0981 56.3649 29.9639 54.8995 28.4772 53.8646C26.9904 52.8298 25.2223 52.2751 23.4109 52.2753Z" fill="#68328A"/>
</svg>
