<svg width="144" height="90" viewBox="0 0 144 90" fill="none" xmlns="http://www.w3.org/2000/svg">
<path fill-rule="evenodd" clip-rule="evenodd" d="M0 86.3263V3.67346C0 1.64295 1.64301 0 3.67346 0H51.7443C52.7201 0 53.6529 0.387439 54.3417 1.07621L68.7198 15.4543C69.4085 16.1431 69.796 17.0758 69.796 18.0516V86.3265C69.796 88.357 68.153 90 66.1225 90H3.67372C1.64321 90 0 88.3567 0 86.3263ZM53.2652 16.1651V1.80844C53.2652 1.4784 53.6598 1.31339 53.8894 1.54298L68.2531 15.9068C68.4827 16.1363 68.3177 16.531 67.9877 16.531H53.6311C53.4302 16.531 53.2652 16.3659 53.2652 16.1651ZM6.42855 17.4493H44.9999V15.6126H6.42855V17.4493ZM63.3672 56.0207H28.4693V54.1839H63.3672V56.0207ZM28.4693 76.2247H63.3672V74.388H28.4693V76.2247ZM44.9999 11.9391H6.42855V10.1024H44.9999V11.9391ZM28.4693 48.6737H63.3672V46.837H28.4693V48.6737ZM63.3672 68.8778H28.4693V67.041H63.3672V68.8778ZM6.79406 27.5513C6.59316 27.5513 6.42815 27.7164 6.42815 27.9173V34.5324C6.42815 34.7333 6.59317 34.8983 6.79406 34.8983H63.0017C63.2026 34.8983 63.3676 34.7333 63.3676 34.5324V27.9173C63.3676 27.7164 63.2026 27.5513 63.0017 27.5513H6.79406ZM22.9588 44.0819H6.42819V58.7758H22.9588V44.0819ZM20.0459 48.2647C20.3329 47.8414 20.2181 47.2746 19.7948 46.9948C19.3715 46.7078 18.8047 46.8226 18.5248 47.2459L14.4783 53.3157L12.7492 50.08C12.5124 49.628 11.9528 49.4629 11.508 49.6997C11.056 49.9365 10.891 50.4961 11.1277 50.9409L14.299 56.8888L20.0459 48.2647ZM6.42819 64.2859H22.9588V78.9798H6.42819V64.2859ZM19.7946 67.1988C20.2179 67.4786 20.3327 68.0454 20.0457 68.4687L14.2988 77.0927L11.1275 71.1449C10.8907 70.7 11.0557 70.1404 11.5078 69.9036C11.9526 69.6669 12.5122 69.8319 12.749 70.2839L14.4781 73.5197L18.5246 67.4498C18.8044 67.0265 19.3713 66.9118 19.7946 67.1988Z" fill="#68328A"/>
<path fill-rule="evenodd" clip-rule="evenodd" d="M143.265 22.0408H75.3059V89.9998H143.265V22.0408ZM102.857 23.8775V44.9999L109.285 37.653L116.632 44.9999V23.8775H102.857Z" fill="#68328A"/>
</svg>
