<svg width="85" height="90" viewBox="0 0 85 90" fill="none" xmlns="http://www.w3.org/2000/svg">
<path d="M39.4706 0.00224317C38.9377 0.00224317 38.4034 0.0449164 37.8755 0.0660488C37.7363 0.0711532 37.5995 0.0589026 37.4607 0.0660488C35.4705 0.166402 33.5258 0.413641 31.6225 0.799813C31.59 0.805939 31.5592 0.82508 31.5267 0.831716C31.1105 0.917267 30.694 1.02027 30.2825 1.11884C30.0073 1.18459 29.726 1.23878 29.453 1.31026C29.2179 1.37192 28.9846 1.43577 28.7512 1.50168C28.1824 1.66197 27.6184 1.82728 27.0604 2.01212C26.7605 2.11166 26.4637 2.22466 26.1671 2.33115C25.5928 2.537 25.0379 2.76973 24.4763 3.00111C24.4149 3.02632 24.346 3.03939 24.2849 3.06491C23.6403 3.33434 22.9974 3.62419 22.3707 3.92629C21.489 4.35072 20.63 4.78049 19.7866 5.26621C19.7398 5.30419 19.697 5.34696 19.659 5.39382C14.3696 8.47721 9.8408 12.7341 6.4834 17.8364C6.33762 17.96 6.23669 18.1282 6.19628 18.315C2.31302 24.3987 0.0377613 31.5977 0.00713459 39.3392C0.00539501 39.371 0.00539501 39.4029 0.00713459 39.4348C0.0071009 39.456 0.00713459 39.4774 0.00713459 39.4986C-0.0023782 39.5727 -0.0023782 39.6478 0.00713459 39.7219C0.0496955 47.4023 2.29372 54.5697 6.13247 60.6185C6.13228 60.6291 6.13228 60.6396 6.13247 60.6502C6.14726 60.7896 6.19562 60.9234 6.2734 61.04C6.35119 61.1567 6.45608 61.2528 6.57911 61.3201C9.91313 66.3361 14.3843 70.5206 19.5955 73.5708C19.6163 73.5822 19.6376 73.5928 19.6593 73.6025C19.6718 73.6127 19.6787 73.6268 19.6912 73.634C19.7216 73.6572 19.7536 73.6783 19.7869 73.6973C19.8485 73.733 19.9165 73.7575 19.9783 73.7933C20.3587 74.0102 20.7386 74.2267 21.1268 74.4313C21.8809 74.8278 22.6416 75.1993 23.4238 75.5479C23.7098 75.6756 23.9956 75.8098 24.2852 75.9307C24.3464 75.9563 24.4153 75.9695 24.4766 75.994C25.0382 76.2255 25.5931 76.4581 26.1674 76.664C26.4641 76.7705 26.7608 76.8834 27.0607 76.983C27.6187 77.1678 28.1827 77.3332 28.7515 77.4935C28.9849 77.5588 29.2182 77.6231 29.4533 77.6849C30.1352 77.8634 30.8313 78.021 31.527 78.1634C31.834 78.2267 32.1425 78.267 32.4521 78.323C33.0223 78.4256 33.5965 78.5323 34.1749 78.6101C34.2593 78.6213 34.3455 78.6315 34.4301 78.6417C34.9789 78.7122 35.5335 78.7857 36.0891 78.8331C36.4489 78.8638 36.8113 78.876 37.1737 78.8965C37.9412 78.9414 38.6922 78.9598 39.4707 78.9598C40.1001 78.9598 40.7285 78.924 41.3531 78.8965V77.1737C40.7331 77.2064 40.1017 77.237 39.4707 77.237C37.9421 77.237 36.4506 77.1331 34.9725 76.9498C34.164 76.8538 33.3717 76.7452 32.5797 76.599C28.894 75.896 25.4121 74.6351 22.1789 72.962C25.4059 71.2861 28.8746 70.0361 32.5471 69.3251H32.6109C34.0891 69.0416 35.6041 68.8495 37.1411 68.7509C37.9142 68.7019 38.6838 68.6549 39.4699 68.6549C40.1015 68.6549 40.7283 68.6815 41.3522 68.7182V66.9954H41.2246C40.93 66.9811 40.628 66.9709 40.3314 66.9637V54.0107C40.6738 54.0107 41.0112 54.0342 41.3522 54.0424C41.3505 54.0104 41.3505 53.9784 41.3522 53.9464C41.3521 53.9359 41.3521 53.9253 41.3522 53.9147C41.37 53.8705 41.3913 53.8279 41.4161 53.7871C41.4159 53.7766 41.4159 53.766 41.4161 53.7555C41.4338 53.7113 41.4551 53.6686 41.4799 53.6279C41.4902 53.6171 41.5009 53.6065 41.5118 53.5962C41.5578 53.5364 41.6114 53.4828 41.6713 53.4368C41.6711 53.4262 41.6711 53.4157 41.6713 53.4051C41.7108 53.3693 41.7535 53.3372 41.7989 53.3092L43.5536 52.3521C42.488 52.2969 41.412 52.2684 40.3315 52.2561V40.3566H60.8769C60.865 41.289 60.8313 42.2184 60.7812 43.1322L62.5359 42.1751C62.5596 41.5673 62.5923 40.971 62.5997 40.3567H77.2106C77.1502 43.0533 76.7866 45.6735 76.1898 48.2047L77.7529 49.0342C78.5217 45.9738 78.9652 42.7893 78.9652 39.4953C78.9652 31.7153 76.698 24.4586 72.8081 18.3435C72.7933 18.204 72.7449 18.0702 72.6671 17.9536C72.5893 17.8369 72.4845 17.7408 72.3614 17.6735C69.0067 12.6275 64.5336 8.41313 59.2818 5.35955C59.2513 5.33619 59.2194 5.31487 59.1861 5.29574C59.1735 5.2886 59.1667 5.27105 59.1542 5.2639C58.8686 5.09944 58.5829 4.94292 58.2928 4.78536C57.847 4.54309 57.4088 4.30888 56.9529 4.0835C56.8375 4.02643 56.718 3.97994 56.6019 3.92398C55.9663 3.61759 55.3098 3.33537 54.6559 3.06261C54.1345 2.84501 53.5934 2.62029 53.0608 2.42455C52.799 2.32869 52.5276 2.22791 52.2632 2.13743C52.1673 2.10445 52.0723 2.07388 51.9761 2.04172C51.162 1.77001 50.3244 1.52707 49.4877 1.30795C48.9436 1.16515 48.3816 1.04503 47.8287 0.925119C47.1109 0.770465 46.3911 0.625376 45.6593 0.510383C45.6055 0.502216 45.5538 0.486811 45.4998 0.478542C45.4895 0.4765 45.4783 0.480584 45.4679 0.478542C44.1672 0.278989 42.8504 0.132389 41.512 0.0638056C41.3649 0.0566594 41.2128 0.069931 41.0653 0.0638056C40.5374 0.0426732 40.0031 0 39.4702 0L39.4706 0.00224317ZM39.4706 1.75696C41.0332 1.75696 42.556 1.85333 44.0646 2.04409C44.0853 2.04613 44.1078 2.04204 44.1284 2.04409C48.6311 2.62119 52.8873 4.0248 56.7619 6.03187C55.5357 6.66811 54.2623 7.24857 52.9654 7.75463C52.9548 7.75443 52.9442 7.75443 52.9335 7.75463C52.9115 7.76279 52.8918 7.77806 52.8697 7.78653C51.9111 8.15397 50.9263 8.48266 49.9347 8.77552C49.702 8.84432 49.4673 8.93443 49.2328 8.99884C48.7455 9.13256 48.26 9.23515 47.7653 9.34977C45.9482 9.77041 44.0919 10.0702 42.1822 10.2111C42.0557 10.2203 41.9263 10.2349 41.7994 10.243C41.0312 10.2915 40.2515 10.3068 39.4705 10.3068C38.8822 10.3068 38.297 10.3027 37.7158 10.2749C37.5251 10.2658 37.3315 10.2552 37.1416 10.243C35.5836 10.1446 34.0461 9.95532 32.5476 9.66879C32.0849 9.57987 31.6324 9.45556 31.1757 9.34977C31.0792 9.32741 30.9848 9.30903 30.8886 9.28596C30.739 9.25002 30.5909 9.22788 30.442 9.19031C30.1985 9.12875 29.9498 9.06525 29.7082 8.9989C28.5157 8.67169 27.3448 8.28503 26.1989 7.8504C24.8227 7.3234 23.4765 6.70507 22.1791 6.032C26.0715 4.01564 30.3506 2.61642 34.8769 2.04421C34.8979 2.04217 34.9197 2.04625 34.9408 2.04421C35.7986 1.93726 36.649 1.86722 37.5248 1.82089C38.1684 1.78832 38.819 1.75696 39.4706 1.75696ZM20.2656 7.02086C21.5975 7.765 22.9596 8.47063 24.381 9.06264C21.967 12.6526 20.0248 17.0858 18.6385 22.079C14.9868 21.0191 11.5274 19.7142 8.33366 18.1549C11.441 13.626 15.5269 9.82964 20.2656 7.02086ZM58.7082 7.02086C63.4443 9.82964 67.5017 13.6277 70.6077 18.1547C67.4142 19.7139 63.9548 21.0189 60.3029 22.0788C58.9166 17.0856 56.9743 12.6524 54.5604 9.06245C55.9904 8.46684 57.3688 7.7704 58.7082 7.02086ZM26.1031 9.7007C28.725 10.6536 31.4558 11.3321 34.302 11.7106C34.8648 11.7925 35.422 11.846 35.9928 11.9021C36.4688 11.9444 36.9478 11.9728 37.4284 11.9977C37.5249 12.0028 37.6188 12.0248 37.7155 12.0296C38.0109 12.0428 38.3118 12.0235 38.6088 12.0296V12.0614V24.9818C32.1878 24.9116 26.0212 24.0533 20.3288 22.5572C21.7304 17.549 23.6998 13.1678 26.1031 9.7007ZM52.8381 9.7007C55.2414 13.1675 57.2109 17.5494 58.6125 22.5578C52.9196 24.0539 46.7528 24.9122 40.3324 24.9824V12.0294C41.2094 12.0102 42.0865 11.9784 42.9485 11.9017C43.5194 11.8457 44.0765 11.7922 44.6393 11.7103C47.4855 11.3318 50.2163 10.6536 52.8381 9.7007ZM7.37689 19.5906C10.7351 21.245 14.3516 22.6587 18.1922 23.7699C17.0693 28.3483 16.4077 33.3388 16.3418 38.6045H1.7625C1.92431 31.6412 3.93781 25.1289 7.37689 19.5906ZM71.5653 19.5906C75.0044 25.1287 77.0504 31.6412 77.2121 38.6046H62.6011C62.5352 33.3388 61.8736 28.3478 60.7507 23.7701C64.5911 22.6588 68.2068 21.245 71.5653 19.5906ZM19.8828 24.2484C25.7267 25.7842 32.0385 26.6352 38.61 26.7049V38.6043H18.0646C18.1322 33.5016 18.7957 28.6561 19.8828 24.2484ZM59.0594 24.2484C60.1466 28.6566 60.8103 33.5019 60.8778 38.6041H40.3324V26.7046C46.9033 26.6349 53.2148 25.7842 59.0594 24.2484ZM1.76199 40.359H16.3413C16.4044 45.6181 17.0766 50.6517 18.1917 55.2253C14.3485 56.3373 10.7369 57.7485 7.37638 59.4045C3.9321 53.858 1.91829 47.3338 1.76199 40.359ZM18.0646 40.359H38.61V52.2585C32.0391 52.328 25.7274 53.2111 19.8828 54.747H19.8509C18.7671 50.3335 18.1286 45.4691 18.0646 40.359ZM63.6534 43.5493L44.0013 54.1094L50.1585 57.6825L70.0025 46.9315L63.6534 43.5493ZM71.7887 47.8881L51.913 58.7034L56.2199 61.16L75.9353 50.0895L71.7887 47.8881ZM77.7864 51.0464L57.9424 62.1486L63.8125 65.5623L83.5922 54.1089L77.7864 51.0464ZM38.6098 54.0135V66.9665C38.3123 66.9767 38.0119 66.9838 37.7165 66.9981C33.6504 67.1768 29.7596 67.9749 26.1039 69.2952C23.6943 65.8212 21.6971 61.457 20.2976 56.4381C25.9989 54.9455 32.1772 54.083 38.6098 54.0135ZM43.0762 55.5766V78.5466L62.9202 90V67.0616L57.3053 63.8075L57.2096 67.6359C57.2018 67.7849 57.1557 67.9294 57.0758 68.0554C56.9959 68.1814 56.8848 68.2846 56.7533 68.3552C56.6218 68.4258 56.4744 68.4612 56.3252 68.4581C56.176 68.4551 56.0301 68.4136 55.9017 68.3377L49.7763 64.7646C49.6506 64.6876 49.5465 64.5799 49.4739 64.4515C49.4013 64.3232 49.3627 64.1784 49.3616 64.0309L49.3297 59.2135L43.0762 55.5766ZM84.4855 55.6083L64.6741 67.0616V90L84.4855 78.5466V55.6083ZM18.6065 56.9163C19.9892 61.9158 21.9633 66.336 24.3808 69.9326C22.947 70.5271 21.5761 71.2228 20.2335 71.9744C15.5055 69.1668 11.4358 65.3617 8.33397 60.8406C11.5206 59.2849 14.9638 57.9703 18.6065 56.9163ZM51.083 60.2023V63.5202L55.5176 66.1043L55.5814 62.8183L51.083 60.2023ZM79.0299 67.9547C79.0405 67.9545 79.0511 67.9545 79.0618 67.9547C79.0937 67.9529 79.1256 67.9529 79.1575 67.9547C79.3698 67.9564 79.5741 68.0358 79.7317 68.178L82.3158 70.3793C82.4046 70.4523 82.4781 70.5422 82.5321 70.6437C82.586 70.7453 82.6193 70.8566 82.6301 70.9711C82.6409 71.0856 82.6289 71.2011 82.5949 71.3109C82.5608 71.4208 82.5054 71.5228 82.4318 71.6112C82.3582 71.6995 82.2678 71.7725 82.1659 71.8257C82.064 71.879 81.9525 71.9115 81.8379 71.9216C81.7234 71.9316 81.608 71.9189 81.4983 71.8842C81.3887 71.8494 81.287 71.7934 81.1992 71.7192L80.0507 70.7302V77.0151C80.0507 77.2477 79.9582 77.4709 79.7937 77.6354C79.6292 77.8 79.406 77.8924 79.1733 77.8924C78.9406 77.8924 78.7175 77.8 78.5529 77.6354C78.3884 77.4709 78.296 77.2477 78.296 77.0151V71.0492L77.5303 71.9106C77.453 71.9951 77.3597 72.0635 77.2559 72.1119C77.152 72.1602 77.0397 72.1876 76.9252 72.1924C76.8107 72.1972 76.6965 72.1793 76.589 72.1398C76.4814 72.1003 76.3828 72.0399 76.2987 71.9621C76.2146 71.8843 76.1467 71.7907 76.0989 71.6865C76.0511 71.5824 76.0244 71.4699 76.0203 71.3554C76.0162 71.241 76.0347 71.1267 76.0748 71.0195C76.115 70.9122 76.1759 70.8139 76.2542 70.7302L78.5193 68.2418C78.6511 68.0898 78.8316 67.9883 79.0299 67.9547ZM72.0751 71.783C72.0857 71.7828 72.0963 71.7828 72.107 71.783C72.1388 71.7812 72.1708 71.7812 72.2027 71.783C72.3186 71.7757 72.4347 71.7916 72.5443 71.83C72.6539 71.8684 72.7547 71.9283 72.8407 72.0063L75.4248 74.2076C75.529 74.2746 75.6176 74.3631 75.6847 74.4672C75.7519 74.5713 75.7959 74.6885 75.814 74.811C75.832 74.9335 75.8237 75.0585 75.7894 75.1775C75.7552 75.2966 75.6959 75.4069 75.6155 75.5011C75.5351 75.5952 75.4354 75.6711 75.3233 75.7236C75.2111 75.7761 75.089 75.804 74.9651 75.8054C74.8413 75.8068 74.7186 75.7816 74.6053 75.7316C74.492 75.6816 74.3906 75.608 74.3082 75.5156L73.1597 74.5266V80.8434C73.1746 80.9654 73.1635 81.0892 73.1271 81.2065C73.0907 81.3239 73.0297 81.4322 72.9483 81.5242C72.8668 81.6162 72.7668 81.6899 72.6547 81.7404C72.5427 81.7909 72.4212 81.8171 72.2983 81.8171C72.1754 81.8171 72.0539 81.7909 71.9418 81.7404C71.8298 81.6899 71.7297 81.6162 71.6483 81.5242C71.5669 81.4322 71.5059 81.3239 71.4695 81.2065C71.433 81.0892 71.4219 80.9654 71.4369 80.8434V74.8776L70.6712 75.707C70.6023 75.811 70.5118 75.8989 70.4058 75.9648C70.2999 76.0306 70.1809 76.0729 70.0572 76.0886C69.9334 76.1044 69.8077 76.0931 69.6887 76.0559C69.5696 76.0186 69.46 75.9561 69.3673 75.8727C69.2745 75.7892 69.2009 75.6868 69.1513 75.5723C69.1018 75.4578 69.0775 75.334 69.0802 75.2093C69.0828 75.0846 69.1123 74.9618 69.1667 74.8495C69.221 74.7372 69.2989 74.638 69.3951 74.5585L71.6283 72.0701C71.7435 71.9301 71.8998 71.8297 72.0751 71.783Z" fill="#68328A"/>
</svg>
