<svg width="15" height="16" viewBox="0 0 15 16" fill="none" xmlns="http://www.w3.org/2000/svg">
<path d="M7.42626 4.32061C9.47305 4.32061 11.1625 6.01002 11.1625 8.0568C11.1625 10.1361 9.47305 11.793 7.42626 11.793C5.34699 11.793 3.69007 10.1361 3.69007 8.0568C3.69007 6.01002 5.34699 4.32061 7.42626 4.32061ZM7.42626 10.4934C8.7583 10.4934 9.83042 9.42132 9.83042 8.0568C9.83042 6.72477 8.7583 5.65264 7.42626 5.65264C6.06174 5.65264 4.98962 6.72477 4.98962 8.0568C4.98962 9.42132 6.09423 10.4934 7.42626 10.4934ZM12.1696 4.19065C12.1696 4.67798 11.7797 5.06785 11.2924 5.06785C10.8051 5.06785 10.4152 4.67798 10.4152 4.19065C10.4152 3.70333 10.8051 3.31346 11.2924 3.31346C11.7797 3.31346 12.1696 3.70333 12.1696 4.19065ZM14.6387 5.06785C14.7037 6.26993 14.7037 9.87616 14.6387 11.0782C14.5738 12.2478 14.3139 13.255 13.4691 14.1322C12.6244 14.9769 11.5848 15.2368 10.4152 15.3018C9.21314 15.3667 5.6069 15.3667 4.40482 15.3018C3.23523 15.2368 2.22808 14.9769 1.35089 14.1322C0.506188 13.255 0.246279 12.2478 0.181301 11.0782C0.116324 9.87616 0.116324 6.26993 0.181301 5.06785C0.246279 3.89826 0.506188 2.85862 1.35089 2.01392C2.22808 1.16921 3.23523 0.909303 4.40482 0.844326C5.6069 0.779349 9.21314 0.779349 10.4152 0.844326C11.5848 0.909303 12.6244 1.16921 13.4691 2.01392C14.3139 2.85862 14.5738 3.89826 14.6387 5.06785ZM13.0793 12.3453C13.4691 11.4031 13.3717 9.12893 13.3717 8.0568C13.3717 7.01717 13.4691 4.74296 13.0793 3.7683C12.8194 3.15102 12.332 2.6312 11.7148 2.40378C10.7401 2.01392 8.4659 2.11138 7.42626 2.11138C6.35414 2.11138 4.07994 2.01392 3.13777 2.40378C2.48799 2.66369 2.00066 3.15102 1.74076 3.7683C1.35089 4.74296 1.44836 7.01717 1.44836 8.0568C1.44836 9.12893 1.35089 11.4031 1.74076 12.3453C2.00066 12.9951 2.48799 13.4824 3.13777 13.7423C4.07994 14.1322 6.35414 14.0347 7.42626 14.0347C8.4659 14.0347 10.7401 14.1322 11.7148 13.7423C12.332 13.4824 12.8519 12.9951 13.0793 12.3453Z" fill="#09090B"/>
</svg>
