<svg width="90" height="90" viewBox="0 0 90 90" fill="none" xmlns="http://www.w3.org/2000/svg">
<path d="M0 71.4257L29.0679 77.9762C29.0679 77.2597 29.1702 76.5433 29.3749 75.8268C29.4773 75.315 29.5796 74.9056 29.7843 74.3939L5.21993 68.8669C3.07055 68.4575 0.921164 69.5834 0 71.4257Z" fill="#68328A"/>
<path d="M25.6902 49.7273L30.296 48.192C30.3984 48.192 30.5007 48.0897 30.6031 48.0897C30.9101 48.0897 31.1149 48.192 31.3196 48.3967L34.7995 51.672L36.6418 43.3815L27.5325 41.3345L25.6902 49.7273Z" fill="#68328A"/>
<path d="M35.209 67.5363C37.2561 66.2057 39.7125 65.4892 42.0666 65.4892L46.5701 45.633L38.5866 43.893L36.3349 53.9235C36.2325 54.3329 36.0278 54.5376 35.6184 54.64C35.5161 54.64 35.4137 54.64 35.3114 54.64C35.0043 54.64 34.7996 54.5376 34.5949 54.3329L30.2962 50.2388L24.6668 52.1835C24.3598 52.2859 23.9504 52.1835 23.6433 51.9788C23.3362 51.7741 23.2339 51.3647 23.3362 50.9553L25.588 40.9248L21.0845 39.9013L17.7069 39.0825L11.1564 68.048L30.7056 72.4491C31.7291 70.5045 33.2643 68.7645 35.209 67.5363Z" fill="#68328A"/>
<path d="M38.2795 24.3441C38.5866 24.3441 38.8936 24.4465 39.0983 24.7536L41.4524 27.517L43.2947 19.4313L36.4372 17.896L34.5948 25.9818L37.8701 24.4465C37.9724 24.3441 38.0748 24.3441 38.2795 24.3441Z" fill="#68328A"/>
<path d="M27.0208 39.1852L32.5478 40.4134L39.7124 42.0511L47.0817 43.6887L48.8217 36.1147L52.097 21.376L45.2394 19.8408L42.9877 29.8712C42.8853 30.2806 42.5783 30.5877 42.2712 30.69C42.1689 30.69 42.0665 30.69 42.0665 30.69C41.7595 30.69 41.4524 30.5877 41.2477 30.2806L37.9725 26.596L33.469 28.643C33.1619 28.8477 32.7525 28.7454 32.4455 28.5407C32.1384 28.336 32.0361 27.9266 32.1384 27.5171L34.3902 17.4867L27.5326 15.9514L22.5174 38.2641L27.0208 39.1852Z" fill="#68328A"/>
<path d="M87.3059 3.66897L77.2755 1.41724L76.1496 6.12541L86.1801 8.37714C86.7942 8.4795 87.4083 8.37714 88.0224 8.07009C88.5341 7.76303 88.9436 7.25128 89.0459 6.53482C89.353 5.3066 88.5341 3.97603 87.3059 3.66897Z" fill="#68328A"/>
<path d="M62.4345 2.03135C59.4663 3.87367 57.5216 6.73952 56.7028 10.1171L44.2159 65.5917C44.6253 65.5917 44.9324 65.694 45.3418 65.7964C46.1606 66.0011 46.9794 66.2058 47.6959 66.6152L60.2851 10.5265C61.2063 6.33011 65.4027 3.66897 69.5991 4.59014L74.1026 5.61365L75.1261 1.00783L72.0555 0.291369C68.7803 -0.425092 65.3003 0.189017 62.4345 2.03135Z" fill="#68328A"/>
<path d="M44.83 67.8437C44.0112 67.639 43.1924 67.5366 42.3736 67.5366C40.2242 67.5366 38.1772 68.1507 36.3348 69.2766C33.7761 70.9142 32.0361 73.3707 31.422 76.3389C30.8079 79.3071 31.3196 82.2753 32.8549 84.834C34.4925 87.3928 36.949 89.1328 39.9171 89.7469C42.8853 90.361 45.8535 89.8493 48.4123 88.314C50.9711 86.6764 52.7111 84.2199 53.3252 81.2517C53.9393 78.2835 53.4276 75.3153 51.8923 72.7566C50.2547 70.1978 47.7982 68.4578 44.83 67.8437ZM48.4123 80.1259C47.6959 82.9917 45.1371 84.9364 42.3736 84.9364C41.9642 84.9364 41.4524 84.9364 41.043 84.834C37.7678 84.1176 35.6184 80.8423 36.4372 77.4647C37.1537 74.1895 40.4289 72.0401 43.8065 72.8589C46.9794 73.5754 49.1288 76.8506 48.4123 80.1259Z" fill="#68328A"/>
<path d="M43.2948 74.8033C42.9877 74.7009 42.6806 74.7009 42.3736 74.7009C40.5313 74.7009 38.7913 76.0315 38.3819 77.8738C37.8701 80.1256 39.303 82.2749 41.4524 82.7867C43.7042 83.2985 45.8535 81.8655 46.3653 79.7162C46.8771 77.4644 45.4441 75.315 43.2948 74.8033Z" fill="#68328A"/>
</svg>
