<svg width="97" height="90" viewBox="0 0 97 90" fill="none" xmlns="http://www.w3.org/2000/svg">
<path fill-rule="evenodd" clip-rule="evenodd" d="M48.247 13.3892C46.3929 13.389 44.5805 13.9386 43.0388 14.9685C41.4972 15.9983 40.2955 17.4623 39.5859 19.1751C38.8762 20.8879 38.6905 22.7727 39.052 24.5911C39.4136 26.4096 40.3063 28.0799 41.6172 29.391C42.9281 30.702 44.5984 31.5949 46.4167 31.9567C48.2351 32.3185 50.1199 32.1329 51.8329 31.4234C53.5458 30.714 55.0098 29.5125 56.0399 27.971C57.0699 26.4294 57.6197 24.6171 57.6197 22.763C57.6175 20.2778 56.6293 17.895 54.8721 16.1376C53.1149 14.3802 50.7322 13.3917 48.247 13.3892ZM48.247 35.4295C45.7417 35.4297 43.2927 34.687 41.2096 33.2953C39.1264 31.9036 37.5028 29.9255 36.5439 27.611C35.5851 25.2965 35.3341 22.7497 35.8227 20.2926C36.3113 17.8355 37.5176 15.5784 39.289 13.8069C41.0604 12.0354 43.3173 10.8289 45.7744 10.3401C48.2315 9.85124 50.7783 10.102 53.0929 11.0607C55.4074 12.0193 57.3857 13.6428 58.7776 15.7258C60.1694 17.8088 60.9123 20.2578 60.9123 22.763C60.9089 26.1212 59.5735 29.3408 57.199 31.7154C54.8246 34.0901 51.6051 35.4258 48.247 35.4295ZM31.4549 82.4274C31.4549 82.6438 31.4122 82.8581 31.3293 83.0581C31.2464 83.258 31.1249 83.4397 30.9718 83.5926C30.8186 83.7456 30.6368 83.8668 30.4368 83.9495C30.2367 84.0321 30.0223 84.0745 29.8059 84.0742H13.0631C12.6266 84.0742 12.208 83.9008 11.8994 83.5922C11.5908 83.2835 11.4174 82.8649 11.4174 82.4285C11.4174 81.992 11.5908 81.5734 11.8994 81.2647C12.208 80.9561 12.6266 80.7827 13.0631 80.7827H29.8059C30.2422 80.783 30.6606 80.9563 30.9693 81.2646C31.278 81.5729 31.4519 81.9911 31.4527 82.4274H31.4549ZM68.501 38.4004H96.4939L88.6147 24.3391H73.3826C72.7338 29.3107 71.0724 34.0963 68.501 38.4004ZM89.333 89.8563V41.6941H66.4093L49.8981 66.3V90H89.185C89.2233 89.9992 89.2599 89.984 89.2873 89.9573C89.3148 89.9307 89.3311 89.8946 89.333 89.8563ZM7.16199 89.8563C7.16362 89.8945 7.17971 89.9305 7.207 89.9572C7.23429 89.9839 7.27072 89.9992 7.30888 90H46.6001V66.3L30.0889 41.6941H7.16199V89.8563ZM7.87819 24.3391L0 38.4004H27.9929C25.4204 34.0968 23.759 29.3109 23.1114 24.3391H7.87819ZM32.1282 6.64856C36.4122 2.39019 42.2071 0 48.2475 0C54.2879 0 60.0828 2.39019 64.3668 6.64856C73.8972 16.1779 70.5103 29.6774 64.1631 39.1348L48.247 62.8445L32.3276 39.1316C25.9815 29.672 22.5946 16.1725 32.1282 6.6432V6.64856Z" fill="#68328A"/>
</svg>
