<svg width="99" height="90" viewBox="0 0 99 90" fill="none" xmlns="http://www.w3.org/2000/svg">
<path d="M98.5785 69.6375C98.3766 69.2489 97.9724 69.0157 97.5371 69.0157H47.2831L39.2781 57.1556C39.0604 56.8447 38.703 56.6426 38.3144 56.6426H1.16408C0.775486 56.6426 0.417997 56.8447 0.200355 57.1711C-0.0172883 57.482 -0.06396 57.9016 0.0916336 58.2592L13.0398 89.2851C13.2263 89.7203 13.646 90.0001 14.128 90.0001H84.5888C84.9619 90.0001 85.3195 89.8136 85.5372 89.5027L98.5009 70.8343C98.7496 70.4768 98.7807 70.0105 98.5785 69.6375ZM14.7184 68.0053C13.6304 68.0053 12.7599 67.1193 12.7599 66.0313C12.7599 64.9587 13.6304 64.0727 14.7184 64.0727C15.8064 64.0727 16.677 64.9587 16.677 66.0313C16.677 67.1193 15.8064 68.0053 14.7184 68.0053ZM23.8583 68.0053C22.7857 68.0053 21.9 67.1193 21.9 66.0313C21.9 64.9587 22.7857 64.0727 23.8583 64.0727C24.9465 64.0727 25.8325 64.9587 25.8325 66.0313C25.8325 67.1193 24.9465 68.0053 23.8583 68.0053ZM33.0138 68.0053C31.9258 68.0053 31.0397 67.1193 31.0397 66.0313C31.0397 64.9587 31.9258 64.0727 33.0138 64.0727C34.0863 64.0727 34.9724 64.9587 34.9724 66.0313C34.9724 67.1193 34.0863 68.0053 33.0138 68.0053Z" fill="#68328A"/>
<path d="M53.3641 66.6743H70.2941C70.9379 66.6743 71.4599 66.1523 71.4599 65.5085V57.1126C71.4599 56.4687 70.9379 55.9468 70.2941 55.9468H53.3641C52.7203 55.9468 52.1983 56.4687 52.1983 57.1126V65.5085C52.1983 66.1523 52.7203 66.6743 53.3641 66.6743ZM66.739 59.2241C66.739 58.5805 67.2612 58.0583 67.9048 58.0583C68.5484 58.0583 69.0706 58.5805 69.0706 59.2241V63.3955C69.0706 64.0391 68.5484 64.5613 67.9048 64.5613C67.2612 64.5613 66.739 64.0391 66.739 63.3955V59.2241ZM60.6625 59.2241C60.6625 58.5805 61.1847 58.0583 61.8283 58.0583C62.472 58.0583 62.9942 58.5805 62.9942 59.2241V63.3955C62.9942 64.0391 62.472 64.5613 61.8283 64.5613C61.1847 64.5613 60.6625 64.0391 60.6625 63.3955V59.2241ZM54.5861 59.2241C54.5861 58.5805 55.1083 58.0583 55.7519 58.0583C56.3955 58.0583 56.9177 58.5805 56.9177 59.2241V63.3955C56.9177 64.0391 56.3955 64.5613 55.7519 64.5613C55.1083 64.5613 54.5861 64.0391 54.5861 63.3955V59.2241Z" fill="#68328A"/>
<path d="M74.9573 66.6743H91.8872C92.5311 66.6743 93.053 66.1523 93.053 65.5085V57.1126C93.053 56.4687 92.5311 55.9468 91.8872 55.9468H74.9573C74.3134 55.9468 73.7915 56.4687 73.7915 57.1126V65.5085C73.7915 66.1523 74.3134 66.6743 74.9573 66.6743ZM88.3321 59.2241C88.3321 58.5805 88.8543 58.0583 89.498 58.0583C90.1416 58.0583 90.6638 58.5805 90.6638 59.2241V63.3955C90.6638 64.0391 90.1416 64.5613 89.498 64.5613C88.8543 64.5613 88.3321 64.0391 88.3321 63.3955V59.2241ZM82.2557 59.2241C82.2557 58.5805 82.7779 58.0583 83.4215 58.0583C84.0651 58.0583 84.5873 58.5805 84.5873 59.2241V63.3955C84.5873 64.0391 84.0651 64.5613 83.4215 64.5613C82.7779 64.5613 82.2557 64.0391 82.2557 63.3955V59.2241ZM76.1793 59.2241C76.1793 58.5805 76.7014 58.0583 77.3451 58.0583C77.9887 58.0583 78.5109 58.5805 78.5109 59.2241V63.3955C78.5109 64.0391 77.9887 64.5613 77.3451 64.5613C76.7014 64.5613 76.1793 64.0391 76.1793 63.3955V59.2241Z" fill="#68328A"/>
<path d="M73.7915 44.053V52.4489C73.7915 53.0928 74.3134 53.6147 74.9573 53.6147H91.8872C92.5311 53.6147 93.053 53.0928 93.053 52.4489V44.053C93.053 43.4092 92.5311 42.8872 91.8872 42.8872H74.9573C74.3134 42.8872 73.7915 43.4092 73.7915 44.053ZM78.5109 50.3374C78.5109 50.981 77.9887 51.5032 77.3451 51.5032C76.7014 51.5032 76.1792 50.9811 76.1792 50.3374V46.1645C76.1792 45.5209 76.7014 44.9987 77.3451 44.9987C77.9887 44.9987 78.5109 45.5209 78.5109 46.1645V50.3374ZM84.5873 50.3374C84.5873 50.981 84.0651 51.5032 83.4215 51.5032C82.7779 51.5032 82.2557 50.9811 82.2557 50.3374V46.1645C82.2557 45.5209 82.7779 44.9987 83.4215 44.9987C84.0651 44.9987 84.5873 45.5209 84.5873 46.1645V50.3374ZM90.6637 50.3374C90.6637 50.981 90.1416 51.5032 89.4979 51.5032C88.8543 51.5032 88.3321 50.9811 88.3321 50.3374V46.1645C88.3321 45.5209 88.8543 44.9987 89.4979 44.9987C90.1416 44.9987 90.6637 45.5209 90.6637 46.1645V50.3374Z" fill="#68328A"/>
<path d="M28.2108 44.4558H12.0294L14.5011 20.0672C14.5631 19.4766 15.0604 19.0103 15.6513 19.0103H24.5891C25.1952 19.0103 25.6927 19.4766 25.7549 20.0672L28.2108 44.4558Z" fill="#68328A"/>
<path d="M11.936 1.16581C11.936 0.528553 12.4647 0 13.1018 0C15.2938 0 16.4596 1.02596 17.3765 1.84974C18.2159 2.58036 18.8066 3.1088 20.1122 3.1088C21.4336 3.1088 22.0397 2.58036 22.8636 1.84974C23.7963 1.02595 24.9466 0 27.1382 0C27.7911 0 28.304 0.528538 28.304 1.16581C28.304 1.81872 27.7911 2.33162 27.1382 2.33162C25.8325 2.33162 25.2263 2.87572 24.4024 3.60625C21.6156 6.06815 18.67 6.1079 15.8376 3.60625C15.0137 2.86016 14.4077 2.33162 13.1019 2.33162C12.4647 2.33161 11.936 1.81872 11.936 1.16581Z" fill="#68328A"/>
<path d="M28.304 9.12431C28.304 9.77722 27.7911 10.2901 27.1382 10.2901C25.8325 10.2901 25.2263 10.8342 24.4024 11.5647C21.6156 14.0266 18.67 14.0664 15.8376 11.5647C15.0137 10.8186 14.4077 10.2901 13.1018 10.2901C12.4647 10.2901 11.936 9.77722 11.936 9.12431C11.936 8.48705 12.4647 7.9585 13.1018 7.9585C15.2938 7.9585 16.4596 8.98446 17.3765 9.80824C19.3383 11.5521 20.9611 11.4953 22.8636 9.80824C23.7963 8.98445 24.9466 7.9585 27.1382 7.9585C27.7911 7.95851 28.304 8.48705 28.304 9.12431Z" fill="#68328A"/>
<path d="M32.563 47.9529V54.3104H7.69257V47.9529C7.69257 47.3156 8.20563 46.7871 8.85838 46.7871H31.3972C32.0346 46.7871 32.563 47.3155 32.563 47.9529Z" fill="#68328A"/>
</svg>
