<svg width="106" height="90" viewBox="0 0 106 90" fill="none" xmlns="http://www.w3.org/2000/svg">
<path d="M39.5017 7.99856e-05C38.9302 7.99856e-05 38.3828 0.196115 38.0274 0.450559C37.6719 0.705002 37.4736 0.921101 37.3312 1.06485C37.3309 1.07848 37.3309 1.09209 37.3312 1.10572L29.9188 8.68187C29.7801 8.77496 29.6674 8.90179 29.5912 9.05045L21.2369 17.6095C21.1428 17.7161 21.073 17.8418 21.0321 17.978C21.0172 18.0047 21.0035 18.032 20.9912 18.0599C20.8407 18.2302 20.7539 18.4472 20.7454 18.6742V29.7314C20.7582 29.7458 20.7738 29.7576 20.7864 29.7721L24.4721 28.5435C26.2321 27.9553 28.102 28.7331 29.0179 30.2635L35.1608 28.2159C37.196 27.536 39.4361 28.638 40.116 30.673L55.0228 75.3527C55.7027 77.3879 54.5932 79.5898 52.5656 80.267L37.0862 85.4271H101.832C103.054 85.4271 103.947 84.5393 104.494 83.4613C105.04 82.3833 105.354 80.9872 105.354 79.4889V18.6746C105.349 18.5425 105.317 18.4128 105.261 18.2932C105.205 18.1736 105.125 18.0665 105.026 17.9784C104.985 17.8422 104.915 17.7165 104.821 17.6099L89.6277 1.10564C89.6144 1.09161 89.6008 1.07799 89.5867 1.06477C89.4443 0.921021 89.2869 0.704935 88.9315 0.450479C88.576 0.196022 88.0287 0 87.4572 0H72.7549H54.2037L39.5017 7.99856e-05ZM39.5017 1.9658H54.204H58.2173L57.2345 4.83249C57.1945 4.81617 57.1534 4.80245 57.1116 4.79153H36.4715L38.7649 2.45732C38.9817 2.23692 39.1114 2.09286 39.1744 2.04779C39.2406 2.00035 39.2625 1.9658 39.5017 1.9658ZM60.3462 1.9658H65.9158L71.0348 17.6916H54.8582L60.3462 1.9658ZM67.9634 1.9658H72.7548H87.4571C87.6963 1.9658 87.7185 2.00027 87.7847 2.04771C87.851 2.09515 87.9552 2.21587 88.1943 2.45724L90.3238 4.79145H69.1097C69.0688 4.78889 69.0277 4.78889 68.9868 4.79145C68.9589 4.80381 68.9316 4.81744 68.9049 4.83233L67.9634 1.9658ZM34.5867 6.75718H56.5779L55.9227 8.55909C55.8561 8.53823 55.7874 8.52454 55.7179 8.51822H32.8657L34.5867 6.75718ZM69.5189 6.75718H91.9204C91.9884 6.76431 92.0571 6.76431 92.1251 6.75718L93.7632 8.51822H70.4209C70.3936 8.51708 70.3663 8.51708 70.339 8.51822C70.2695 8.52455 70.2008 8.53824 70.1342 8.55909L69.5189 6.75718ZM95.4822 10.4429C95.5095 10.4441 95.5369 10.4441 95.5641 10.4429L102.239 17.6914H73.1219L70.7466 10.4838H95.195C95.292 10.4844 95.3892 10.4706 95.4822 10.4429ZM30.9409 10.4838H55.2661L52.7681 17.6914H23.8968L30.9409 10.4838ZM54.6528 19.6572H71.4021V31.4515C70.6201 30.9512 69.6521 30.455 68.4944 30.5916C67.4263 30.7174 66.7823 31.4776 66.4468 31.9021C66.1113 32.3265 66.1423 32.423 65.8325 32.4344C65.6602 32.4344 65.6679 32.4213 65.6277 32.3937C65.5876 32.3623 65.4857 32.2398 65.3411 32.0251C65.1965 31.8103 65.0055 31.4896 64.6449 31.206C64.2843 30.9223 63.7339 30.7351 63.1706 30.7556C62.1083 30.795 61.4232 31.5401 61.0819 31.9432C60.7408 32.3464 60.7511 32.4234 60.4267 32.4346C60.0946 32.4477 59.975 32.3033 59.5257 31.8613C59.0764 31.4191 58.3524 30.6762 57.2324 30.5918C56.1858 30.5119 55.352 30.9103 54.6523 31.3699L54.6528 19.6572ZM17.0996 29.9364C16.9415 29.956 16.7639 30.0071 16.6082 30.0595C15.362 30.4757 14.6567 31.7227 14.8471 32.9672C14.8784 33.1932 14.8302 33.423 14.7106 33.6172C14.5911 33.8115 14.4077 33.9581 14.1919 34.032L10.0558 35.4244C9.06811 35.7544 8.52747 36.767 8.78623 37.7586C8.80113 37.7851 8.81479 37.8122 8.82718 37.8399C8.83138 37.853 8.82259 37.8674 8.82718 37.8805C8.85754 37.9195 8.88492 37.9606 8.90909 38.0037L9.23671 39.0685L9.76909 40.6657L10.0148 41.4028V41.4434H10.0558C10.0721 41.4835 10.0858 41.5247 10.0967 41.5667C10.1252 41.6256 10.1823 41.6833 10.2196 41.7305C10.2345 41.7462 10.2445 41.7566 10.2605 41.771C10.2958 41.8103 10.302 41.8668 10.3424 41.8943C10.3776 41.9139 10.4276 41.9217 10.4653 41.9348C10.5398 41.9623 10.6276 41.9755 10.711 41.9755C10.7935 41.9755 10.8742 41.9623 10.9567 41.9348L28.28 36.1606C28.4766 36.0951 28.6084 35.9991 28.6895 35.833C28.7336 35.757 28.7565 35.6764 28.7714 35.5873C28.7729 35.5742 28.7707 35.5597 28.7714 35.5466C28.7763 35.4483 28.7658 35.3251 28.7305 35.219L28.4848 34.3999L27.9524 32.8029L27.5838 31.779C27.5655 31.7257 27.5518 31.6708 27.5429 31.6152C27.1977 30.582 26.1173 30.0418 25.0857 30.3866L20.9495 31.779C20.7303 31.8565 20.4907 31.8538 20.2732 31.7714C20.0558 31.6889 19.8746 31.532 19.7619 31.3286C19.3151 30.4968 18.473 29.9742 17.5505 29.9362C17.3967 29.9362 17.2577 29.9167 17.0996 29.9364ZM36.1422 29.977C36.0133 29.9927 35.9026 30.015 35.7737 30.0583L29.7536 32.1059L29.7945 32.1871L30.3269 33.7843L30.3679 33.8656L35.7327 32.0636C35.7861 32.0454 35.8409 32.0318 35.8965 32.023C36.1288 31.9813 36.3683 32.0246 36.5713 32.1449C36.7743 32.2652 36.9273 32.4545 37.0022 32.6783L51.3363 75.5967C51.3742 75.7204 51.3873 75.8502 51.3748 75.979C51.3623 76.1077 51.3246 76.2328 51.2637 76.3469C51.2029 76.4611 51.12 76.5621 51.0201 76.6442C50.9201 76.7262 50.8049 76.7878 50.6811 76.8252L17.5101 87.9234C17.3865 87.9684 17.2552 87.9881 17.1239 87.9815C16.9925 87.9748 16.8638 87.942 16.7455 87.8847C16.6271 87.8274 16.5214 87.7468 16.4347 87.6479C16.348 87.5491 16.282 87.4339 16.2406 87.3091L1.90652 44.3907C1.86865 44.267 1.85558 44.137 1.86803 44.0083C1.88049 43.8795 1.91823 43.7546 1.97911 43.6404C2.03998 43.5263 2.12278 43.4253 2.22276 43.3432C2.32275 43.2611 2.43795 43.1996 2.56176 43.1621L7.92662 41.3604L7.88567 41.2791L7.35328 39.682L7.31233 39.5589L1.33325 41.6065C0.301544 41.951 -0.242608 42.9833 0.10467 44.0226L15.0114 88.7021C15.3586 89.7415 16.4294 90.2372 17.4686 89.8899L51.9094 78.3821C52.9487 78.0348 53.4826 76.9977 53.138 75.966L38.2312 31.2864C37.9296 30.3838 37.045 29.8643 36.1422 29.977ZM35.446 34.2361L30.6955 35.8333C30.6794 35.9512 30.686 36.0878 30.6546 36.2018C30.6093 36.368 30.5664 36.4985 30.4908 36.6523C30.3008 37.0515 29.996 37.3705 29.6308 37.6352C29.615 37.6483 29.606 37.6627 29.5898 37.6758C29.5364 37.7124 29.4826 37.7663 29.426 37.799C29.2727 37.8881 29.1092 37.9447 28.9346 38.0037L11.5707 43.8188C11.3424 43.8948 11.105 43.9289 10.8745 43.942C10.2219 43.9774 9.57832 43.8024 9.07257 43.4095C8.98101 43.3388 8.90914 43.2464 8.82685 43.1638L4.11724 44.72L17.7961 85.7539L49.1245 75.3111L35.446 34.2361ZM34.0537 42.5083C34.081 42.5072 34.1083 42.5072 34.1356 42.5083C34.3813 42.4811 34.6283 42.5476 34.8273 42.6944C35.0263 42.8412 35.1626 43.0576 35.2091 43.3005C35.2556 43.5434 35.2089 43.7948 35.0782 44.0048C34.9476 44.2147 34.7426 44.3677 34.5041 44.4332L17.7549 50.0436C17.6307 50.0857 17.4994 50.1028 17.3687 50.0938C17.2379 50.0848 17.1102 50.0499 16.993 49.9912C16.8758 49.9325 16.7714 49.8511 16.6858 49.7517C16.6003 49.6524 16.5353 49.5371 16.4947 49.4124C16.4541 49.2878 16.4386 49.1564 16.4491 49.0257C16.4596 48.895 16.496 48.7678 16.556 48.6513C16.6161 48.5348 16.6987 48.4313 16.799 48.347C16.8994 48.2626 17.0155 48.199 17.1406 48.1598L33.8899 42.5902C33.9418 42.5581 33.9967 42.5303 34.0537 42.5083ZM14.2326 46.6446C14.2599 46.6435 14.2872 46.6435 14.3145 46.6446C14.4973 46.6304 14.6805 46.6675 14.8433 46.7519C15.0062 46.8363 15.1421 46.9646 15.2359 47.1222C15.3296 47.2798 15.3773 47.4605 15.3737 47.6439C15.3701 47.8272 15.3153 48.006 15.2155 48.1598L12.5945 52.8694C12.5309 52.9887 12.4434 53.0936 12.3374 53.1775C12.2314 53.2614 12.1093 53.3226 11.9786 53.3572C11.8479 53.3918 11.7115 53.399 11.5779 53.3785C11.4443 53.358 11.3164 53.3101 11.2021 53.2379L9.27727 52.0093C9.15364 51.9473 9.0445 51.8599 8.95696 51.7528C8.86943 51.6457 8.80548 51.5214 8.76929 51.3879C8.7331 51.2544 8.72549 51.1148 8.74695 50.9782C8.76842 50.8415 8.81847 50.711 8.89385 50.595C8.96923 50.4791 9.06822 50.3803 9.18437 50.3052C9.30053 50.2302 9.43122 50.1804 9.5679 50.1593C9.70459 50.1381 9.84419 50.1461 9.97759 50.1826C10.111 50.2191 10.2352 50.2834 10.342 50.3712L11.3659 51.0265L13.4954 47.1769C13.5628 47.0527 13.6563 46.9445 13.7694 46.8597C13.8825 46.7749 14.0125 46.7155 14.1506 46.6855C14.1773 46.6707 14.2047 46.6569 14.2326 46.6446ZM36.5108 49.6341C36.5381 49.6329 36.5654 49.6329 36.5927 49.6341C36.8534 49.5961 37.1185 49.6632 37.3297 49.8206C37.5409 49.978 37.6809 50.2129 37.7189 50.4736C37.7569 50.7343 37.6898 50.9994 37.5324 51.2106C37.375 51.4218 37.1401 51.5618 36.8794 51.5998L20.1301 57.1694C20.004 57.2344 19.8653 57.2714 19.7236 57.2778C19.5819 57.2842 19.4404 57.2598 19.309 57.2063C19.1776 57.1528 19.0593 57.0716 18.9622 56.9681C18.8652 56.8646 18.7917 56.7413 18.7469 56.6067C18.702 56.4721 18.6868 56.3294 18.7023 56.1883C18.7178 56.0473 18.7637 55.9113 18.8367 55.7897C18.9098 55.6681 19.0083 55.5637 19.1256 55.4837C19.2428 55.4038 19.3759 55.3502 19.5158 55.3266L36.2651 49.716C36.3184 49.6978 36.3732 49.6842 36.4289 49.6754C36.4556 49.6606 36.4829 49.6463 36.5108 49.6341ZM16.5259 53.8112C16.5396 53.811 16.5532 53.811 16.5669 53.8112C16.5942 53.8101 16.6215 53.8101 16.6488 53.8112C16.8289 53.7941 17.0102 53.827 17.1727 53.9063C17.3353 53.9855 17.4729 54.1082 17.5703 54.2606C17.6676 54.413 17.7211 54.5893 17.7247 54.7702C17.7283 54.951 17.6819 55.1293 17.5907 55.2855L14.9697 60.036C14.9026 60.152 14.8125 60.2529 14.7049 60.3328C14.5974 60.4126 14.4746 60.4696 14.3442 60.5003C14.2139 60.531 14.0786 60.5347 13.9467 60.5112C13.8148 60.4877 13.6891 60.4375 13.5774 60.3637L11.6525 59.1761C11.542 59.1063 11.4463 59.0154 11.3709 58.9086C11.2955 58.8018 11.242 58.6812 11.2133 58.5537C11.1846 58.4261 11.1813 58.2942 11.2037 58.1654C11.226 58.0366 11.2736 57.9135 11.3436 57.8031C11.4136 57.6927 11.5047 57.5972 11.6117 57.522C11.7186 57.4469 11.8394 57.3935 11.967 57.3651C12.0946 57.3367 12.2265 57.3337 12.3553 57.3563C12.484 57.3789 12.607 57.4267 12.7173 57.497L13.7821 58.1522L15.8707 54.3437C15.9335 54.2119 16.0249 54.0956 16.1382 54.0035C16.2516 53.9114 16.384 53.8457 16.5259 53.8112ZM38.8854 56.7598C38.9263 56.7573 38.9674 56.7573 39.0083 56.7598C39.2685 56.7281 39.5308 56.8008 39.7375 56.9621C39.9442 57.1234 40.0786 57.3601 40.1111 57.6202C40.1436 57.8804 40.0716 58.1428 39.911 58.35C39.7503 58.5572 39.5141 58.6923 39.254 58.7256L22.5453 64.3361C22.4215 64.3796 22.2904 64.3982 22.1594 64.3909C22.0284 64.3835 21.9002 64.3504 21.782 64.2934C21.6638 64.2365 21.5581 64.1567 21.4708 64.0588C21.3835 63.9608 21.3163 63.8466 21.2732 63.7227C21.2302 63.5988 21.2119 63.4676 21.2196 63.3366C21.2273 63.2057 21.2607 63.0775 21.3181 62.9595C21.3753 62.8415 21.4554 62.736 21.5535 62.6489C21.6517 62.5619 21.7661 62.4951 21.8901 62.4523L38.6394 56.8417C38.6927 56.8235 38.7475 56.8099 38.8032 56.8011C38.8298 56.7863 38.8575 56.7721 38.8854 56.7598ZM19.0237 60.937C19.051 60.9359 19.0783 60.9359 19.1056 60.937C19.2885 60.9227 19.4717 60.9599 19.6345 61.0443C19.7974 61.1287 19.9334 61.257 20.0271 61.4147C20.1208 61.5723 20.1686 61.753 20.165 61.9364C20.1613 62.1198 20.1065 62.2985 20.0066 62.4523L17.3447 67.1618C17.2811 67.2811 17.1936 67.386 17.0877 67.4699C16.9817 67.5538 16.8596 67.615 16.7289 67.6496C16.5982 67.6842 16.4618 67.6915 16.3282 67.671C16.1946 67.6505 16.0666 67.6026 15.9523 67.5304L14.0275 66.3019C13.917 66.2321 13.8213 66.1412 13.7459 66.0344C13.6705 65.9276 13.617 65.807 13.5883 65.6794C13.5596 65.5519 13.5563 65.42 13.5787 65.2912C13.601 65.1624 13.6486 65.0392 13.7186 64.9288C13.7886 64.8184 13.8797 64.7229 13.9867 64.6478C14.0936 64.5726 14.2144 64.5193 14.3419 64.4908C14.4695 64.4624 14.6015 64.4594 14.7302 64.482C14.859 64.5047 14.982 64.5525 15.0923 64.6227L16.157 65.278L18.2866 61.4695C18.354 61.3453 18.4475 61.237 18.5606 61.1522C18.6737 61.0674 18.8037 61.008 18.9418 60.978C18.9685 60.9632 18.9958 60.9493 19.0237 60.937ZM41.1788 63.9266C41.2061 63.9255 41.2334 63.9255 41.2607 63.9266C41.288 63.9255 41.3153 63.9255 41.3426 63.9266C41.5814 63.9174 41.8154 63.9953 42.001 64.1459C42.1866 64.2966 42.311 64.5096 42.3511 64.7452C42.3912 64.9808 42.3442 65.223 42.219 65.4265C42.0937 65.63 41.8986 65.781 41.6702 65.8513L24.9209 71.4619C24.6713 71.5427 24.3998 71.5211 24.166 71.402C23.9322 71.2829 23.7553 71.0759 23.6739 70.8264C23.5926 70.577 23.6135 70.3055 23.7321 70.0714C23.8507 69.8374 24.0573 69.66 24.3066 69.5781L41.0153 64.0085C41.0419 63.9937 41.0693 63.9802 41.0972 63.9679C41.1238 63.9531 41.1508 63.9389 41.1788 63.9266ZM43.6768 71.0524C43.6905 71.0521 43.7041 71.0521 43.7178 71.0524C43.978 71.0099 44.2444 71.0724 44.4587 71.226C44.673 71.3796 44.8176 71.6119 44.861 71.872C44.9043 72.1321 44.8428 72.3987 44.69 72.6135C44.5371 72.8283 44.3053 72.9738 44.0454 73.0181L27.2961 78.5876C27.17 78.6526 27.0313 78.6896 26.8896 78.6959C26.7479 78.7023 26.6065 78.6778 26.4751 78.6243C26.3438 78.5708 26.2255 78.4896 26.1285 78.3861C26.0315 78.2826 25.9581 78.1593 25.9132 78.0247C25.8684 77.8901 25.8532 77.7475 25.8687 77.6065C25.8842 77.4655 25.93 77.3295 26.003 77.2079C26.076 77.0863 26.1745 76.982 26.2917 76.902C26.4089 76.8221 26.5419 76.7684 26.6818 76.7448L43.4311 71.1343C43.4844 71.1161 43.5392 71.1025 43.5949 71.0936C43.6216 71.0788 43.6489 71.0646 43.6768 71.0524Z" fill="#68328A"/>
</svg>
