<svg width="91" height="90" viewBox="0 0 91 90" fill="none" xmlns="http://www.w3.org/2000/svg">
<path fill-rule="evenodd" clip-rule="evenodd" d="M0 28.3128H6.31673V90H14.765V42.4335H75.3653V90H83.8136V28.3128H90.1303V19.5522L45.0684 0L0 19.5522V28.3128ZM20.2434 28.5594H25.1759V34.8929H20.2434V28.5594ZM64.9609 28.5594H69.8869V34.8929H64.9609V28.5594ZM53.7766 28.5594H58.7092V34.8929H53.7766V28.5594ZM42.5989 28.5594H47.5314V34.8929H42.5989V28.5594ZM31.4212 28.5594H36.3537V34.8929H31.4212V28.5594ZM33.3513 77.8715V90H17.0071V77.8715H33.3513ZM28.1588 86.8916H31.2782V88.2284H28.1588V86.8916ZM17.0071 73.5756H33.3513V76.4763H17.0071V73.5756ZM53.2373 77.8715V90H36.8931V77.8715H53.2373ZM48.0448 86.8916H51.1642V88.2284H48.0448V86.8916ZM36.8931 73.5756H53.2373V76.4763H36.8931V73.5756ZM73.1232 77.8715V90H56.7855V77.8715H73.1232ZM67.9308 86.8916H71.0502V88.2284H67.9308V86.8916ZM56.7855 73.5756H73.1232V76.4763H56.7855V73.5756ZM33.3513 59.6755V71.804H17.0071V59.6755H33.3513ZM28.1588 68.6957H31.2782V70.0389H28.1588V68.6957ZM17.0071 55.3861H33.3513V58.2803H17.0071V55.3861ZM53.2373 59.6755V71.804H36.8931V59.6755H53.2373ZM48.0448 68.6957H51.1642V70.0389H48.0448V68.6957ZM36.8931 55.3861H53.2373V58.2803H36.8931V55.3861Z" fill="#68328A"/>
</svg>
