<svg width="18" height="14" viewBox="0 0 18 14" fill="none" xmlns="http://www.w3.org/2000/svg">
<path d="M17.6101 2.80187C18 4.1664 18 7.09037 18 7.09037C18 7.09037 18 9.98186 17.6101 11.3789C17.4152 12.1586 16.7979 12.7434 16.0507 12.9383C14.6537 13.2957 9.13058 13.2957 9.13058 13.2957C9.13058 13.2957 3.57503 13.2957 2.17802 12.9383C1.43078 12.7434 0.813494 12.1586 0.618562 11.3789C0.228699 9.98186 0.228699 7.09037 0.228699 7.09037C0.228699 7.09037 0.228699 4.1664 0.618562 2.80187C0.813494 2.02215 1.43078 1.40486 2.17802 1.20993C3.57503 0.820068 9.13058 0.820068 9.13058 0.820068C9.13058 0.820068 14.6537 0.820068 16.0507 1.20993C16.7979 1.40486 17.4152 2.02215 17.6101 2.80187ZM7.31122 9.72195L11.9246 7.09037L7.31122 4.45879V9.72195Z" fill="#09090B"/>
</svg>
